<?xml version="1.0" encoding="utf-8"?>
<!-- Generator: Adobe Illustrator 16.0.0, SVG Export Plug-In . SVG Version: 6.00 Build 0)  -->
<!DOCTYPE svg PUBLIC "-//W3C//DTD SVG 1.1//EN" "http://www.w3.org/Graphics/SVG/1.1/DTD/svg11.dtd">
<svg version="1.1" xmlns="http://www.w3.org/2000/svg" xmlns:xlink="http://www.w3.org/1999/xlink" x="0px" y="0px"
	 width="492.938px" height="450.943px" viewBox="0 0 492.938 450.943" enable-background="new 0 0 492.938 450.943"
	 xml:space="preserve">
<g id="Layer_0_xA0_Image_1_">
	<g>
		<path fill-rule="evenodd" clip-rule="evenodd" fill="#FEFEFE" d="M244.441,222.447c-72.657,0-145.315-0.031-217.972,0.097
			c-3.424,0.006-4.104-0.672-4.096-4.096c0.132-62.659,0.132-125.317,0-187.976c-0.007-3.424,0.673-4.097,4.096-4.094
			c145.648,0.11,291.296,0.11,436.945,0c3.423-0.003,4.104,0.67,4.097,4.094c-0.133,62.658-0.133,125.317,0,187.976
			c0.007,3.423-0.672,4.102-4.097,4.096C390.422,222.417,317.432,222.447,244.441,222.447z"/>
		<path fill-rule="evenodd" clip-rule="evenodd" fill="#545454" d="M133.362,211.343c-45.865,23.456-98.453-1.218-108.163-50.75
			c-7.653-39.039,17.5-77.162,56.624-85.826c39.057-8.648,78.169,15.872,87.471,54.835c0.386,1.616,0.8,3.225,1.201,4.837
			c2.776,5.392,3.08,11.217,1.825,16.883c-1.127,5.082-1.409,10.108-1.396,15.235c0.033,13.745-0.002,27.492,0.028,41.237
			c0.004,1.634-0.347,3.316,0.381,4.901c-0.204,6.777-0.204,6.777-6.932,6.778c-7.467,0-14.945-0.25-22.396,0.095
			c-4.355,0.202-6.545-0.813-5.664-5.543c0.148-0.798-0.012-1.654-0.03-2.484C135.411,210.254,134.387,210.795,133.362,211.343z"/>
		<path fill-rule="evenodd" clip-rule="evenodd" fill="#545454" d="M172.41,73.455c10.308-0.115,20.617-0.183,30.923-0.379
			c2.555-0.049,3.086,1.179,2.978,3.37c-0.115,2.311-0.026,4.632-0.026,7.605c25.093-13.814,50.171-15.266,75.07-1.524
			c18.222,10.056,29.885,25.605,35.042,45.881c-0.411,0.497-0.92,0.852-1.524,1.068c-11.05,0.682-22.105,0.507-33.154,0.107
			c-2.826-0.807-4.031-3.344-5.622-5.425c-17.142-22.425-49.148-21.238-63.938,2.826c-7.731,12.58-7.731,26.071-0.398,38.99
			c6.929,12.208,17.789,18.487,31.853,19.181c9.784,0.482,18.285-2.735,25.958-8.637c1.766-1.359,3.201-3.55,5.937-3.191
			c1.193,2.121-0.358,3.417-1.437,4.854c-1.62,1.775-0.86,2.585,1.178,2.8c2.307,0.242,4.626,0.127,6.939,0.13
			c6.45,0.009,12.9-0.076,19.347,0.035c3.286,0.057,5.827-0.91,7.377-3.93c0.489-1.216,1.132-2.302,2.362-2.91
			c0.528-0.189,1.014-0.109,1.455,0.235c-10.351,24.46-28.883,39.257-54.744,43.698c-39.16,6.724-73.696-16.497-83.71-55.215
			c-0.57-2.204-2.13-4.133-1.821-6.573c-0.708-0.791-0.957-1.75-0.928-2.773c0.721-25.933,0.329-51.874,0.438-77.81
			C171.969,75.036,171.956,74.204,172.41,73.455z"/>
		<path fill-rule="evenodd" clip-rule="evenodd" fill="#545454" d="M324.333,125.631c8.815-30.311,37.522-51.458,69.799-51.417
			c32.159,0.041,60.947,21.33,69.896,51.516c1.008,3.401,0.385,4.781-3.219,5.35c-8.056,1.273-16.07,2.822-24.069,4.419
			c-2.453,0.489-3.728,0.292-4.814-2.456c-5.891-14.888-16.832-23.894-32.802-25.721c-15.964-1.827-28.582,4.481-37.818,17.594
			c-0.846,1.2-1.729,2.375-2.594,3.561c-0.189,0.182-0.379,0.363-0.566,0.548c-0.707,0.389-1.473,0.567-2.269,0.644
			c-1.58,0.109-3.165,0.094-4.751,0.128c-1.63-0.001-3.259,0.072-4.89,0.044c-1.98,0.124-3.958-0.067-5.938,0.001
			c-2.066-0.007-4.131,0-6.198,0.015c-2.417-0.04-4.846,0.159-7.238-0.215C324.575,129.283,323.306,128.146,324.333,125.631z"/>
		<path fill-rule="evenodd" clip-rule="evenodd" fill="#545454" d="M363.56,173.155c1.497,0.085,2.267,1.253,3.231,2.148
			c21.795,20.205,55.044,12.462,65.323-15.352c1.177-3.184,2.456-3.499,5.396-2.747c7.572,1.937,15.183,3.829,22.88,5.134
			c4.315,0.732,4.995,2.222,3.789,6.224c-13.686,45.424-67.076,66.096-107.695,41.602c-11.852-7.146-20.981-16.854-27.373-29.121
			c-0.75-1.44-1.909-2.775-1.689-4.59c0.419-0.298,0.87-0.372,1.354-0.192c2.104,1.975,4.522,3.364,7.478,3.277
			c6.709-0.197,13.429,0.929,20.122-0.088c3.653-0.554,7.222,0.089,10.938,0.513c-0.42-1.409-1.794-1.817-2.485-2.816
			C363.988,175.948,362.506,174.949,363.56,173.155z"/>
		<path fill-rule="evenodd" clip-rule="evenodd" fill="#545454" d="M172.386,45.145c0-4.488,0.125-8.98-0.049-13.461
			c-0.099-2.539,0.599-3.496,3.309-3.449c8.972,0.155,17.95,0.138,26.923,0.01c2.683-0.038,3.846,0.565,3.785,3.564
			c-0.184,8.971-0.135,17.949-0.022,26.922c0.032,2.542-0.734,3.538-3.388,3.504c-9.139-0.119-18.282-0.104-27.422-0.005
			c-2.347,0.025-3.254-0.703-3.178-3.126C172.491,54.456,172.386,49.799,172.386,45.145z"/>
		<path fill-rule="evenodd" clip-rule="evenodd" fill="#363636" d="M325.133,171.59c-1.352-1.852-1.224-4.159-1.907-6.216
			c-0.505-1.196-0.098-2.046,0.998-2.636c0.989-0.43,2.038-0.529,3.1-0.557c1.03-0.035,2.063-0.045,3.095-0.028
			c1.018-0.014,2.037-0.025,3.056-0.008c1.267-0.005,2.533-0.014,3.8,0.001c1.008-0.006,2.016-0.016,3.023,0.009
			c1-0.004,2.001-0.005,3.001,0.014c0.997-0.005,1.994-0.001,2.991,0.005c0.754-0.016,1.508-0.01,2.264-0.002
			c1.032-0.025,2.063-0.012,3.096-0.018c1.095-0.049,2.184-0.021,3.277,0.079c2.313,0.253,3.818,1.375,4.105,3.81
			c0.288,0.606,0.733,1.113,1.059,1.686c2.153,3.787,1.654,4.875-2.837,5.132c-6.136,0.352-12.295,0.252-18.434,0.07
			C334.245,172.797,329.49,174.063,325.133,171.59z"/>
		<path fill-rule="evenodd" clip-rule="evenodd" fill="#363637" d="M316.51,163.594c0.233,2.272-2.458,3.527-2.04,5.864
			c-0.527,0.776-1.038,1.569-1.974,1.93c-10.403,1.19-20.833,0.545-31.256,0.378c-0.995-0.017-1.94-0.415-2.739-1.06
			c-1.735-2.488-0.362-4.462,1.061-6.432c0.785-0.845,1.733-1.429,2.841-1.753c1.305-0.334,2.641-0.361,3.979-0.368
			c1.282-0.015,2.566-0.018,3.85,0c1.013-0.008,2.026-0.011,3.039,0.008c0.76-0.017,1.52-0.023,2.279-0.011
			c1.018,0.011,2.034-0.015,3.053-0.013c1.28,0.013,2.562-0.033,3.842-0.01c1.282-0.029,2.563-0.019,3.846,0.001
			c1.27,0.001,2.54,0,3.81,0.019c1.01,0.015,2.019,0.025,3.028,0.073c0.769,0.023,1.52,0.144,2.247,0.396
			C315.864,162.812,316.242,163.14,316.51,163.594z"/>
		<path fill-rule="evenodd" clip-rule="evenodd" fill="#4A4A4A" d="M325.133,171.59c11.774,0,23.549,0,35.228,0
			c0.851-2.838-2.271-3.968-1.868-6.277c0.323-0.35,0.627-0.333,0.909,0.051c1.089,2.756,3.863,4.612,4.158,7.792
			c0.619,1.099,1.239,2.196,1.859,3.294c-1.545,1.604-3.59,1.555-5.558,1.575c-8.432,0.085-16.862,0.04-25.295,0.03
			c-2.198-0.003-4.277-0.354-6.136-1.605c-0.337,0.001-0.674,0.003-1.01,0.004C326.18,175.057,325.524,173.386,325.133,171.59z"/>
		<path fill-rule="evenodd" clip-rule="evenodd" fill="#E9E9E9" d="M172.41,73.455c0.015,27.665,0.03,55.332,0.045,82.998
			c-1.503,1.518-0.876,3.439-0.888,5.187c-0.113,17.017-0.165,34.035-0.234,51.053c-1.463-4.037-0.93-8.252-0.862-12.368
			c0.292-17.818-0.301-35.645,0.69-53.458c0.229-4.118-0.421-8.284-0.667-12.429c1.576-1.491,0.921-3.428,0.926-5.17
			c0.048-16.881,0.01-33.763,0.058-50.644C171.485,76.882,170.833,74.944,172.41,73.455z"/>
		<path fill-rule="evenodd" clip-rule="evenodd" fill="#87B97A" d="M370.418,134.494c1.247,0.472,1.895,1.415,2.114,2.693
			c4.745,9.185,1.688,16.674-5.072,23.36c-2.242,2.11-5.003,2.852-7.98,3.022c-0.294-0.422-0.372-0.875-0.209-1.367
			C364.285,153.49,367.823,144.181,370.418,134.494z"/>
		<path fill-rule="evenodd" clip-rule="evenodd" fill="#80B281" d="M359.43,162.455c0.017,0.372,0.033,0.743,0.05,1.115
			c-0.025,0.599-0.052,1.197-0.078,1.795c0-0.001-0.458,0.019-0.458,0.019l-0.452-0.069c-0.724-1.987-2.547-1.61-4.063-1.891
			c-1.156-1.407-0.571-2.873,0.013-4.218c3.297-7.603,5.54-15.609,8.93-23.177c0.754-1.685,1.499-3.327,3.051-4.441
			c0.931-0.163,1.562,0.227,1.951,1.06c1.18,1.298,1.899,2.729,1.264,4.528C366.604,145.751,363.513,154.303,359.43,162.455z"/>
		<path fill-rule="evenodd" clip-rule="evenodd" fill="#7CAD86" d="M366.421,131.587c-3.997,10.612-7.995,21.224-11.993,31.835
			c-1,0.001-2,0.001-3,0.002c-1.306-1.429-1.084-3.044-0.465-4.637c3.686-9.494,7.293-19.024,11.873-28.144
			c0.426-0.411,0.897-0.472,1.414-0.183C364.974,130.836,365.698,131.212,366.421,131.587z"/>
		<path fill-rule="evenodd" clip-rule="evenodd" fill="#5E8FAD" d="M324.432,163.423c-0.402,0.651-0.804,1.304-1.206,1.953
			c-0.599-0.634-1.197-1.266-1.796-1.897c-0.579-0.647-0.99-1.46-0.688-2.256c4.018-10.568,6.791-21.638,12.648-31.469
			c0.426-0.3,0.884-0.537,1.372-0.719c1.003,0.02,2.081-0.372,2.928,0.524c0.215,3.287-1.489,6.061-2.545,8.974
			c-2.42,6.674-5.518,13.088-7.6,19.905C326.981,160.291,326.1,162.157,324.432,163.423z"/>
		<path fill-rule="evenodd" clip-rule="evenodd" fill="#5B8CB1" d="M334.41,129.479c-5.208,10.997-9.198,22.458-12.979,34
			c-0.999-0.015-1.999-0.03-2.998-0.045c-1.268-1.59-0.586-3.281,0.141-4.668c3.542-6.77,5.387-14.151,7.896-21.292
			c1.95-2.608,2-6.365,5.012-8.337C332.487,128.993,333.511,128.701,334.41,129.479z"/>
		<path fill-rule="evenodd" clip-rule="evenodd" fill="#83B67E" d="M359.43,162.455c0.802-6.423,4.28-11.91,6.24-17.921
			c1.256-3.855,4.153-7.399,2.702-11.887c1.068,0.188,1.704,0.854,2.046,1.847c0.541,1.906,0.808,3.73-0.019,5.717
			c-2.767,6.647-5.406,13.347-8.029,20.052C361.814,161.684,360.901,162.381,359.43,162.455z"/>
		<path fill-rule="evenodd" clip-rule="evenodd" fill="#79AA8E" d="M364.25,130.461c-0.278,0.019-0.557,0.042-0.834,0.071
			c-3.233,3.662-4.131,8.462-6.178,12.702c-3.193,6.614-4.442,14.08-8.811,20.183c-0.663,0.001-1.326,0.002-1.989,0.002
			c-0.826-1.631-0.424-3.288,0.201-4.787c4.163-9.985,7.281-20.373,11.678-30.266l0.394,0.111
			C360.632,128.931,362.71,128.946,364.25,130.461z"/>
		<path fill-rule="evenodd" clip-rule="evenodd" fill="#588AB4" d="M327.431,137.458c-1.672,9.119-6.106,17.28-8.999,25.976
			c-0.641,0.052-1.28,0.104-1.921,0.158c-0.364-0.033-0.728-0.068-1.091-0.103c-0.437-0.786-0.39-1.617-0.082-2.4
			c2.846-7.232,5.312-14.616,8.581-21.681c0.424-0.916,1.133-1.628,2.051-2.103C326.483,137.103,326.97,137.155,327.431,137.458z"/>
		<path fill-rule="evenodd" clip-rule="evenodd" fill="#8FC07B" d="M367.46,160.547c0.117-3.699,4.003-4.859,5.263-8.046
			c2.104-5.322,0.919-10.231-0.191-15.313C377.991,145.057,375.725,155.492,367.46,160.547z"/>
		<path fill-rule="evenodd" clip-rule="evenodd" fill="#5E8FAD" d="M334.41,129.479c-0.996,0.001-1.993,0.001-2.989,0.001
			c-0.858,0.578-1.787,0.984-2.815,1.147c-1.007,0.123-2.021,0.108-3.032,0.113c-0.747,0.022-1.494,0.015-2.241,0.004
			c-1.237-0.005-2.476-0.01-3.714-0.029c-1.259-0.034-2.512-0.104-3.639-0.763c-0.434-0.328-0.622-0.764-0.568-1.305
			c0.329-0.079,0.658-0.159,0.987-0.239c3.046,0.213,6.407,1.33,7.936-2.78c0.035,1.858,0.624,3.02,2.838,2.936
			c2.412-0.093,4.837,0.125,7.256,0.208c0.009,0.221,0.017,0.442,0.024,0.663L334.41,129.479z"/>
		<path fill-rule="evenodd" clip-rule="evenodd" fill="#525252" d="M313.363,170.382c0.369-0.309,0.738-0.616,1.107-0.925
			c0.261,1.983-0.622,3.575-1.74,5.085c-0.432-0.029-0.864-0.06-1.297-0.09c-0.092-0.218-0.184-0.436-0.277-0.653
			C311.074,172.132,312.283,171.299,313.363,170.382z"/>
		<path fill-rule="evenodd" clip-rule="evenodd" fill="#B5B5B5" d="M133.362,211.343c0.54-1.047,1.369-1.72,2.554-1.406
			c0.256,0.068,0.271,1.046,0.397,1.604C135.33,211.475,134.346,211.408,133.362,211.343z"/>
		<path fill-rule="evenodd" clip-rule="evenodd" fill="#FEFEFE" d="M97.75,186.613c-22.137,0.088-40.127-17.806-40.098-39.882
			c0.029-21.74,17.979-39.747,39.738-39.862c21.993-0.117,40.048,17.924,40.028,39.999
			C137.398,168.79,119.697,186.525,97.75,186.613z"/>
		<path fill-rule="evenodd" clip-rule="evenodd" fill="#FEFEFE" d="M280.697,164.218c-0.792,1.68-1.583,3.359-2.374,5.038
			c-0.236,0.594-0.32,1.242-0.65,1.803c-0.637,0.868-1.254,1.762-2.366,2.095c-10.884,10.808-23.673,15.805-39.028,12.486
			c-17.947-3.879-30.739-19.615-31.05-37.96c-0.323-18.967,11.881-34.916,30.304-39.605c17.577-4.474,36.075,3.926,44.641,20.273
			c-0.655,1.14-1.844,1.479-2.932,1.973c-6.159,2.061-11.115,5.6-12.318,12.317c-1.215,6.777,0.467,12.837,6.594,16.955
			c1.282,1.029,2.724,1.732,4.325,2.111C277.473,162.515,279.91,161.785,280.697,164.218z"/>
		<path fill-rule="evenodd" clip-rule="evenodd" fill="#525252" d="M310.381,177.427c-1.683,4.035-4.564,5.354-9.004,5.138
			c-8.121-0.397-16.275-0.142-24.416-0.097c-2.506,0.014-4.896-0.216-7.102-1.765c0.693-1.755,2.305-2.325,3.582-3.252
			c1.72-1.127,3.628-1.484,5.653-1.46c8.726,0.108,17.45,0.429,26.178,0.026C307.094,175.934,308.917,176.096,310.381,177.427z"/>
		<path fill-rule="evenodd" clip-rule="evenodd" fill="#4E4E4E" d="M310.381,177.427c-12.313,0.009-24.626,0.017-36.939,0.024
			c0.609-1.438,2.307-2.404,1.864-4.298c0.32-1.211,1.043-2.108,2.12-2.731c1.622,2.351,4.063,2.54,6.603,2.542
			c7.104,0.01,14.209-0.043,21.313,0.03c2.112,0.022,4.348-0.26,6.078,1.452l0.013,0.006
			C311.083,175.444,310.732,176.436,310.381,177.427z"/>
		<path fill-rule="evenodd" clip-rule="evenodd" fill="#4D7FC4" d="M277.354,129.365c0.939-0.339,1.879-0.678,2.818-1.018
			c11.746,0.1,23.492,0.198,35.238,0.3c0.019,0.264,0.032,0.527,0.042,0.79c-0.173,0.18-0.347,0.359-0.519,0.541
			c-1.135,0.641-2.389,0.663-3.639,0.715c-0.994,0.039-1.988,0.041-2.982,0.047c-1.005,0.023-2.009,0.032-3.014,0.024
			c-1.275,0.011-2.552,0.029-3.828,0.015c-1.04,0.02-2.079,0.016-3.12,0.011c-1.326,0.041-2.651,0.025-3.979,0.015
			c-1.368,0.063-2.735,0.021-4.105,0.026c-1.144,0.117-2.286,0.014-3.432,0.031C283.624,130.677,280.201,131.837,277.354,129.365z"
			/>
		<path fill-rule="evenodd" clip-rule="evenodd" fill="#6B9C9C" d="M337.43,163.424c-1.333,0.001-2.665,0.001-3.998,0.001
			c-1.455-2.869,0.778-5.064,1.591-7.388c3.253-9.307,6.208-18.764,11.408-27.264c1.62-0.008,3.241-0.015,4.862-0.021
			c-1.867,7.538-4.543,14.826-7.893,21.784C341.345,154.805,341.05,159.9,337.43,163.424z"/>
		<path fill-rule="evenodd" clip-rule="evenodd" fill="#6798A1" d="M346.431,128.773c-1.722,8.375-6.629,15.565-8.811,23.796
			c-0.987,3.727-2.768,7.244-4.188,10.856c-1,0.001-2,0.001-3.001,0.002c-1.482-2.558-0.211-4.914,0.828-7.079
			c3.466-7.222,5.476-15.011,8.873-22.245c0.842-1.793,0.278-3.573,0.426-5.354C342.516,128.757,344.473,128.765,346.431,128.773z"
			/>
		<path fill-rule="evenodd" clip-rule="evenodd" fill="#6495A6" d="M340.558,128.749c2.72,1.716,1.693,3.764,0.761,6.052
			c-3.853,9.455-7.896,18.842-10.888,28.626c-1-0.001-2-0.001-2.999-0.002c-1.383-1.975-0.186-3.769,0.369-5.625
			c2.187-7.307,5.74-14.076,8.313-21.225c0.81-2.25,2.187-4.493,1.307-7.095c-0.99-0.015-1.979-0.028-2.97-0.044
			c-0.013-0.223-0.021-0.445-0.024-0.666C336.471,128.765,338.514,128.757,340.558,128.749z"/>
		<path fill-rule="evenodd" clip-rule="evenodd" fill="#74A590" d="M358.318,128.366c1.785,5.041-2.018,9.001-3.524,12.938
			c-2.811,7.343-5.133,14.916-8.354,22.116c-1.003,0.001-2.006,0.003-3.009,0.005c-1.565-2.426,0.059-4.645,0.905-6.563
			c3.875-8.788,5.75-18.322,10.18-26.887c0.469-0.65,1.119-1.046,1.859-1.313C357.022,128.563,357.67,128.464,358.318,128.366z"/>
		<path fill-rule="evenodd" clip-rule="evenodd" fill="#6EA098" d="M356.375,128.662c-0.315,0.273-0.632,0.546-0.947,0.818
			c-3.447,3.464-4.247,8.234-5.814,12.529c-2.225,6.095-5.005,11.974-6.936,18.174c-0.411,1.319-1.254,2.331-2.248,3.243
			c-0.999-0.001-1.999-0.001-2.999-0.001c3.914-10.506,7.868-20.998,11.689-31.538c0.479-1.324,1.157-2.297,2.176-3.139
			C352.987,128.721,354.68,128.692,356.375,128.662z"/>
		<path fill-rule="evenodd" clip-rule="evenodd" fill="#515151" d="M328.431,176.45c12.329,0,24.659,0,36.988,0
			c1.401,1.11,2.803,2.219,4.546,3.599c-0.937,0.484-1.728,1.257-2.234,1.101c-6.765-2.081-13.574,1.007-20.437-0.383
			c-4.162-0.843-8.556,0.734-13.023-0.09C331.248,180.119,329.403,179.232,328.431,176.45z"/>
		<path fill-rule="evenodd" clip-rule="evenodd" fill="#71A394" d="M340.429,163.426c3.144-10.856,8.197-21.003,11.752-31.701
			c0.598-1.798,1.531-2.409,3.246-2.245c-3.026,7.662-4.749,15.78-8.424,23.239c-1.647,3.343-2.41,7.124-3.573,10.706
			C342.43,163.425,341.43,163.426,340.429,163.426z"/>
		<path fill-rule="evenodd" clip-rule="evenodd" fill="#6092AA" d="M337.421,129.48c3.761,1.534,0.969,4.166,0.448,5.671
			c-2.42,7-5.441,13.791-8.123,20.704c-0.952,2.454-1.553,5.042-2.314,7.57c-1-0.001-2-0.002-3-0.003
			C328.184,151.887,332.864,140.707,337.421,129.48z"/>
		<path fill-rule="evenodd" clip-rule="evenodd" fill="#79AB89" d="M348.428,163.417c3.935-10.227,7.927-20.433,11.748-30.702
			c0.651-1.751,1.505-2.423,3.24-2.183c-2.735,9.555-7.641,18.253-10.907,27.603c-0.613,1.755-1.226,3.421-1.081,5.29
			C350.428,163.422,349.428,163.42,348.428,163.417z"/>
		<path fill-rule="evenodd" clip-rule="evenodd" fill="#4D7FC4" d="M315.453,129.437c1.325,0.033,2.651,0.066,3.977,0.101
			c0.757,0.801,0.96,1.796,0.573,2.756c-3.756,9.334-6.947,18.892-11.098,28.069c-0.558,1.233-1.489,2.167-2.471,3.059
			c-1.334,0-2.667,0-4,0c-1.508-1.758-0.537-3.489,0.159-5.14c3.677-8.725,7.563-17.366,10.352-26.437
			c0.386-1.258,1.54-1.68,2.458-2.365L315.453,129.437z"/>
		<path fill-rule="evenodd" clip-rule="evenodd" fill="#474747" d="M311.42,174.447c-10.065,0.002-20.132-0.062-30.195,0.045
			c-3.002,0.031-4.935-0.464-3.799-4.07c0.299-0.389,0.598-0.778,0.896-1.167c1.038,1.509,2.629,1.191,4.09,1.19
			c10.317-0.006,20.635-0.038,30.951-0.063C312.715,171.737,312.068,173.092,311.42,174.447z"/>
		<path fill-rule="evenodd" clip-rule="evenodd" fill="#3C6DDA" d="M290.432,129.487c1.334,0,2.668,0.001,4.002,0.001
			c1.124,1.207,1.508,2.777,0.873,4.14c-4.571,9.819-6.891,20.611-12.872,29.815c-0.58,0.26-1.16,0.52-1.739,0.777
			c-1.629-1.177-3.918-0.21-5.455-1.684c2.301-1.525,3.548-3.719,4.513-6.286C283.131,147.259,286.972,138.449,290.432,129.487z"/>
		<path fill-rule="evenodd" clip-rule="evenodd" fill="#497BC8" d="M315.403,129.48c-2.65,6.926-5.569,13.764-7.852,20.809
			c-1.458,4.5-5.024,8.143-5.117,13.133c-1.331,0.001-2.661,0.002-3.992,0.003c-0.314-0.609-0.525-1.289-0.289-1.921
			c3.653-9.796,6.933-19.732,11.045-29.355c0.47-1.099,1.406-1.839,2.229-2.659C312.751,129.486,314.077,129.483,315.403,129.48z"/>
		<path fill-rule="evenodd" clip-rule="evenodd" fill="#3E70D7" d="M282.435,163.443c3.066-9.293,6.594-18.412,10.72-27.283
			c1.016-2.183,1.414-4.341,1.279-6.674c1.332,0.001,2.665,0.002,3.998,0.003c0.888,0.979,0.932,2.113,0.459,3.25
			c-4.003,9.627-6.83,19.7-11.129,29.213c-0.275,0.609-0.89,0.973-1.325,1.469C285.103,163.429,283.769,163.437,282.435,163.443z"/>
		<path fill-rule="evenodd" clip-rule="evenodd" fill="#5081BF" d="M306.434,163.422c4.217-10.485,8.445-20.965,12.628-31.463
			c0.295-0.739,0.253-1.612,0.367-2.422c1.332-0.019,2.664-0.038,3.997-0.057c0.942,1.081,0.428,2.147-0.021,3.223
			c-3.755,8.98-7.215,18.073-10.329,27.295c-0.495,1.464-1.208,2.706-2.636,3.426C309.105,163.424,307.769,163.423,306.434,163.422z
			"/>
		<path fill-rule="evenodd" clip-rule="evenodd" fill="#4072D4" d="M286.437,163.422c3.392-10.687,7.18-21.227,11.648-31.517
			c0.313-0.72,0.24-1.606,0.347-2.416c0.999,0.001,1.998,0.001,2.997,0.001c1.355,1.86,0.905,3.932,0.212,5.733
			c-3.636,9.438-7.668,18.72-11.206,28.197C289.102,163.421,287.769,163.421,286.437,163.422z"/>
		<path fill-rule="evenodd" clip-rule="evenodd" fill="#4274D1" d="M290.435,163.42c-0.022-7.393,4.14-13.423,6.598-19.994
			c1.714-4.581,4.007-8.948,4.396-13.936c1.333,0.001,2.666,0.002,3.998,0.002c0.772,0.84,0.705,1.83,0.38,2.785
			c-3.61,10.587-7.561,21.039-12.372,31.147C292.435,163.423,291.435,163.421,290.435,163.42z"/>
		<path fill-rule="evenodd" clip-rule="evenodd" fill="#5385BB" d="M310.44,163.425c4.168-11.376,7.832-22.946,12.986-33.945
			c0.668,0,1.336,0,2.005,0c1.296,1.428,1.081,3.032,0.478,4.635c-3.467,9.206-7.245,18.289-10.902,27.419
			c-0.304,0.758-1.011,1.29-1.573,1.89C312.436,163.425,311.438,163.425,310.44,163.425z"/>
		<path fill-rule="evenodd" clip-rule="evenodd" fill="#4577CE" d="M293.435,163.424c-0.124-4.445,2.04-8.298,3.741-12.092
			c3.199-7.134,5.533-14.551,8.251-21.84c1.001,0,2.001-0.001,3.001-0.001c1.765,3.823-1.511,6.541-2.395,9.707
			c-2.078,7.449-4.96,14.684-8.357,21.677c-0.532,1.096-1.184,1.968-2.234,2.55C294.773,163.425,294.104,163.425,293.435,163.424z"
			/>
		<path fill-rule="evenodd" clip-rule="evenodd" fill="#4779CB" d="M295.442,163.425c4.329-11.311,8.658-22.623,12.986-33.934
			c0.999-0.001,1.999-0.001,2.999-0.002c-4.329,11.312-8.657,22.624-12.985,33.936C297.442,163.425,296.443,163.425,295.442,163.425
			z"/>
		<path fill-rule="evenodd" clip-rule="evenodd" fill="#5687B7" d="M313.433,163.425c3.622-9.557,7.198-19.132,10.909-28.654
			c0.68-1.745,1.229-3.421,1.089-5.292c0.997,0.001,1.994,0.001,2.991,0.001c1.074,3.093-0.453,5.537-1.991,7.978
			c-3.913,6.622-5.749,14.119-8.883,21.07c-0.739,1.64-1.42,3.307-2.127,4.962C314.758,163.468,314.096,163.446,313.433,163.425z"/>
		<path fill-rule="evenodd" clip-rule="evenodd" fill="#588AB4" d="M326.431,137.458c0.304-2.75,0.901-5.425,1.991-7.979
			c1,0.001,1.999,0.001,2.999,0.001c-1.344,2.653-1.639,5.83-3.99,7.978C327.097,137.458,326.764,137.458,326.431,137.458z"/>
		<path fill-rule="evenodd" clip-rule="evenodd" fill="#3769E0" d="M277.354,129.365c3.36,0.042,6.72,0.084,10.079,0.125
			c1.39,4.7-2.116,8.133-3.45,12.028c-1.823,5.324-3.782,10.618-5.544,15.979c-1.478,4.495-2.7,4.963-7.344,3.079
			c-6.216-3.882-8.989-10.289-7.684-17.75C264.611,135.969,270.042,130.727,277.354,129.365z"/>
		<path fill-rule="evenodd" clip-rule="evenodd" fill="#3A6CDD" d="M271.095,160.575c3.022,0.824,5.423,0.57,6.222-3.153
			c1.892-8.807,5.564-16.973,9.186-25.154c0.394-0.889,0.624-1.85,0.931-2.778c1-0.001,2-0.002,2.999-0.003
			c0.099,4.81-1.795,9.133-3.776,13.284c-2.588,5.42-4.681,11.014-6.616,16.66c-0.896,2.612-2.413,3.285-4.799,3.106
			C273.543,162.55,272.163,161.894,271.095,160.575z"/>
	</g>
</g>
<g id="Artificial_intelligence_Blockchain_Contents__x26__Convergence_1_">
	
		<text id="Artificial_intelligence_Blockchain_Contents__x26__Convergence" transform="matrix(1.011 0 0 1 56.9932 290.5498)" display="none"><tspan x="0" y="0" display="inline" fill="#545454" font-family="'NanumSquare_acL'" font-size="30.7297" letter-spacing="0.989">Artificial intelligence</tspan><tspan x="0" y="40" display="inline" fill="#545454" font-family="'NanumSquare_acL'" font-size="30.7297" letter-spacing="0.989">Blockchain</tspan><tspan x="0" y="80" display="inline" fill="#545454" font-family="'NanumSquare_acL'" font-size="30.7297" letter-spacing="0.989">Contents &amp; Convergence</tspan></text>
	<text transform="matrix(1 0 0 1 67.6514 297.0547)"><tspan x="0" y="0" fill="#777777" font-family="'NanumSquare_acL'" font-size="30" letter-spacing="1">Artificial intelligence</tspan><tspan x="0" y="45" fill="#777777" font-family="'NanumSquare_acL'" font-size="30" letter-spacing="1">Blockchain</tspan><tspan x="0" y="90" fill="#777777" font-family="'NanumSquare_acL'" font-size="30" letter-spacing="1">Contents &amp; Convergence</tspan></text>
</g>
</svg>
