<?xml version="1.0" encoding="utf-8"?>
<!-- Generator: Adobe Illustrator 16.0.0, SVG Export Plug-In . SVG Version: 6.00 Build 0)  -->
<!DOCTYPE svg PUBLIC "-//W3C//DTD SVG 1.1//EN" "http://www.w3.org/Graphics/SVG/1.1/DTD/svg11.dtd">
<svg version="1.1" id="Layer_1" xmlns="http://www.w3.org/2000/svg" xmlns:xlink="http://www.w3.org/1999/xlink" x="0px" y="0px"
	 width="24px" height="24px" viewBox="0 0 24 24" enable-background="new 0 0 24 24" xml:space="preserve">
<path fill="none" d="M0,0h24v24H0V0z"/>
<path fill="#DDDDDD" d="M17,17v-4h-2v4c0,1.65-1.35,3-3,3s-3-1.35-3-3v-4H7v4c0,2.76,2.24,5,5,5S17,19.76,17,17z M9,11V7
	c0-1.65,1.35-3,3-3s3,1.35,3,3v4h2V7c0-2.76-2.24-5-5-5S7,4.24,7,7v4H9z M13,8v8h-2V8H13z"/>
</svg>
