<?xml version="1.0" encoding="utf-8"?>
<!-- Generator: Adobe Illustrator 16.0.0, SVG Export Plug-In . SVG Version: 6.00 Build 0)  -->
<!DOCTYPE svg PUBLIC "-//W3C//DTD SVG 1.1//EN" "http://www.w3.org/Graphics/SVG/1.1/DTD/svg11.dtd">
<svg version="1.1" id="Layer_1" xmlns="http://www.w3.org/2000/svg" xmlns:xlink="http://www.w3.org/1999/xlink" x="0px" y="0px"
	 width="300px" height="300px" viewBox="0 0 300 300" enable-background="new 0 0 300 300" xml:space="preserve">
<g>
	<path fill="#FEFEFE" d="M51.919,153.829c2.526,11.313,9.237,18.929,20.058,23.011c1.998,0.754,4.135,0.914,6.128,1.643
		c-0.012,0.278-0.034,0.559-0.035,0.838c-0.072,12.594,0.028,25.187-0.086,37.779c-0.105,11.633,0.083,23.27,0.108,34.903
		c0.002,0.866,0.173,1.158,1.104,1.144c4.26-0.074,8.514-0.008,12.772-0.455c3.624-0.379,7.234-0.83,10.793-1.553
		c12.458-2.529,24.117-7.121,34.906-13.869c4.667-2.92,9.128-6.121,13.222-9.817c0.411,0.004,0.627,0.319,0.877,0.569
		c11.315,11.312,22.629,22.623,33.938,33.942c0.229,0.229,0.701,0.431,0.48,0.843c-0.162,0.305-0.586,0.146-0.892,0.146
		c-4.399,0.009-8.8,0-13.199,0.009c-2.219,0.005-4.028,1.659-3.93,3.806c0.108,2.346,1.8,3.933,3.974,3.906
		c7.238-0.087,14.479-0.035,21.719-0.029c0.437,0.002,0.883,0.012,1.308,0.098c2.334,0.473,4.846-1.36,4.858-3.727
		c0.045-7.918,0.049-15.839-0.01-23.758c-0.019-2.501-1.91-4.419-4.057-4.283c-2.104,0.133-3.954,1.661-3.864,4.418
		c0.116,3.598,0.028,7.199,0.028,10.799c0,0.938,0,1.875,0,2.822c-0.463-0.033-0.604-0.305-0.792-0.492
		c-11.204-11.195-22.404-22.396-33.604-33.597c-0.308-0.309-0.675-0.583-0.695-1.077c5.336-5.617,10.217-11.592,14.312-18.186
		c6.272-10.102,10.78-20.918,13.382-32.534c0.785-3.51,1.412-7.042,1.84-10.603c0.229-1.922,0.613-3.846,0.479-5.805
		c0.008-0.078,0.017-0.158,0.022-0.238c15.774,0,31.549,0,47.563,0c-0.424,0.465-0.672,0.759-0.941,1.029
		c-3.022,3.028-6.06,6.043-9.07,9.081c-1.625,1.638-1.656,4.067-0.121,5.576c1.592,1.563,4.046,1.524,5.682-0.106
		c3.087-3.078,6.143-6.187,9.256-9.236c2.51-2.459,4.893-5.044,7.526-7.383c1.05-0.934,1.509-2.243,1.149-3.801
		c-0.33-1.429-1.396-2.15-2.316-3.067c-5.188-5.16-10.355-10.341-15.528-15.517c-0.396-0.397-0.786-0.787-1.327-1.002
		c-1.766-0.706-3.887-0.155-4.828,1.271c-1.114,1.686-0.938,3.662,0.508,5.12c3.015,3.037,6.051,6.051,9.068,9.084
		c0.268,0.269,0.646,0.468,0.748,1.025c-15.736,0-31.432,0-47.125,0c-0.009-0.08-0.017-0.159-0.023-0.239
		c0.101-1.194-0.139-2.376-0.162-3.555c-0.104-4.935-0.807-9.785-1.688-14.627c-1.705-9.365-4.74-18.285-8.941-26.807
		c-4.467-9.055-10.106-17.316-16.995-24.712c0.034-0.453,0.405-0.673,0.683-0.949c10.348-10.354,20.697-20.705,31.055-31.049
		c0.231-0.23,0.389-0.629,0.89-0.548c0,0.403,0,0.8,0,1.197c0,4.32-0.019,8.64,0.006,12.959c0.015,2.635,2.603,4.456,5.093,3.627
		c1.786-0.595,2.812-2.225,2.813-4.531c0.007-7.559,0.006-15.118,0.008-22.677c0-2.315-1.009-3.576-3.212-4.329
		c-1.042-0.356-1.965,0.112-2.95,0.106c-7.278-0.044-14.558-0.024-21.837-0.024c-0.52,0-1.023-0.001-1.521,0.231
		c-1.52,0.708-2.614,2.628-2.289,4.083c0.512,2.279,1.726,3.359,3.838,3.365c4.361,0.01,8.721-0.002,13.08,0.014
		c0.367,0.001,0.9-0.233,1.074,0.225c0.133,0.353-0.341,0.584-0.584,0.829c-10.291,10.299-20.586,20.592-30.883,30.884
		c-0.306,0.305-0.564,0.693-1.066,0.708c-2.668-2.468-5.438-4.813-8.346-6.989c-16.277-12.177-34.571-19.072-54.802-20.857
		c-3.855-0.34-7.728-0.251-11.594-0.274c-0.72-0.004-0.859,0.262-0.848,0.906c0.023,1.357-0.046,2.716-0.047,4.075
		c-0.009,11.272-0.018,22.544-0.014,33.816c0.003,11.515,0.02,23.031,0.033,34.546c0,0.439,0.022,0.878,0.033,1.317
		c-1.226,0.576-2.593,0.565-3.871,0.946c-11.983,3.57-19.443,11.386-22.299,23.59"/>
	<path fill="#225FA4" d="M51.934,141.813c2.856-12.205,10.316-20.02,22.299-23.59c1.278-0.381,2.645-0.37,3.871-0.946
		c2.606,0.003,5.211,0.007,7.817,0.01c0.126,0.181,0.314,0.203,0.516,0.236c4.597,0.771,8.875,2.349,12.748,4.985
		c0.641,0.437,1.169,1.07,1.976,1.25c1.867,1.642,3.594,3.422,5.232,5.291c0.028,0.423,0.308,0.727,0.533,1.043
		c2.524,3.539,4.191,7.428,5.095,11.691c0.336,1.585,0.182,3.222,0.702,4.765c-0.003,2.636-0.233,5.253-0.65,7.854
		c-0.114,0.25-0.276,0.488-0.336,0.75c-0.75,3.297-2.132,6.316-3.895,9.188c-1.106,1.804-2.597,3.302-3.81,5.015
		c-1.93,1.805-3.911,3.545-6.235,4.84c-2.191,1.158-4.417,2.229-6.786,2.992c-1.672,0.539-3.453,0.629-5.093,1.283
		c-2.605,0.006-5.209,0.008-7.813,0.01c-1.993-0.728-4.13-0.888-6.128-1.642c-10.821-4.082-17.532-11.696-20.058-23.011"/>
	<path fill="#D4DCE9" d="M112.072,154.404c0.417-2.603,0.646-5.219,0.65-7.855c10.153,0.003,20.306,0.007,30.459,0.011
		c1.799,0,3.599-0.04,5.396,0.017c0.854,0.027,1.095-0.275,1.088-1.099c-0.007-0.731-0.25-1.412-0.267-2.129
		c-0.087-3.749-0.771-7.412-1.604-11.051c-1.478-6.455-3.913-12.541-7.243-18.254c-2.025-3.475-4.309-6.775-6.937-9.842
		c-0.829-0.967-1.216-0.797-1.994-0.014c-7.974,8.023-15.982,16.014-23.988,24.006c-0.355,0.354-0.63,0.857-1.24,0.856
		c-1.638-1.869-3.365-3.649-5.232-5.291c0.028-0.601,0.533-0.869,0.888-1.224c7.878-7.891,15.764-15.774,23.648-23.659
		c1.346-1.347,1.35-1.35-0.061-2.597c-3.537-3.126-7.458-5.703-11.594-7.946c-8.732-4.735-18.106-7.277-27.991-8.01
		c0-2.643,0-5.286,0.001-7.928c3.185,0.069,6.341,0.482,9.458,1.066c7.999,1.496,15.603,4.127,22.756,8.062
		c4.91,2.7,9.458,5.9,13.66,9.582c0.854,0.748,1.202,0.589,1.879-0.097c4.527-4.579,9.095-9.118,13.643-13.676
		c0.301-0.302,0.721-0.537,0.738-1.046c1.902-1.783,3.792-3.578,5.502-5.551c0.502-0.015,0.762-0.402,1.066-0.708
		c10.297-10.292,20.592-20.585,30.883-30.884c0.243-0.244,0.717-0.476,0.584-0.829c-0.174-0.458-0.707-0.224-1.074-0.225
		c-4.359-0.016-8.719-0.003-13.08-0.014c-2.112-0.005-3.326-1.085-3.838-3.365c-0.326-1.455,0.771-3.375,2.289-4.083
		c0.498-0.232,1.002-0.231,1.521-0.231c7.279,0,14.559-0.02,21.837,0.024c0.985,0.006,1.908-0.462,2.95-0.106
		c2.203,0.753,3.212,2.014,3.212,4.329c-0.002,7.559-0.001,15.118-0.008,22.677c-0.003,2.306-1.027,3.937-2.813,4.531
		c-2.49,0.829-5.078-0.992-5.093-3.627c-0.022-4.319-0.006-8.639-0.006-12.959c0-0.396,0-0.793,0-1.197
		c-0.501-0.081-0.657,0.317-0.89,0.548c-10.356,10.344-20.707,20.695-31.056,31.049c-0.274,0.275-0.646,0.496-0.682,0.949
		c-1.833,1.333-3.228,3.127-4.87,4.659c-0.275,0.257-0.666,0.469-0.635,0.946c-0.406-0.006-0.646,0.274-0.9,0.528
		c-4.722,4.722-9.438,9.448-14.173,14.155c-0.438,0.436-0.427,0.667-0.018,1.142c2.262,2.621,4.403,5.349,6.286,8.252
		c3.11,4.795,5.702,9.862,7.694,15.237c2.844,7.668,4.443,15.574,4.65,23.746c0.027,1.105,0.371,1.306,1.377,1.3
		c6.837-0.042,13.674-0.023,20.511-0.024c0.08,0.002,0.155-0.016,0.226-0.053c2.479,0,4.957,0,7.437,0
		c0.071,0.037,0.146,0.055,0.228,0.053c15.693,0,31.389,0,47.125,0c-0.102-0.558-0.48-0.756-0.748-1.025
		c-3.019-3.033-6.055-6.048-9.068-9.084c-1.446-1.458-1.622-3.434-0.508-5.12c0.941-1.425,3.063-1.976,4.828-1.271
		c0.541,0.215,0.932,0.604,1.327,1.002c5.173,5.176,10.341,10.356,15.528,15.517c0.922,0.917,1.986,1.638,2.316,3.067
		c0.358,1.558-0.101,2.869-1.149,3.8c-2.636,2.34-5.019,4.925-7.527,7.384c-3.112,3.051-6.168,6.159-9.255,9.237
		c-1.636,1.631-4.09,1.67-5.682,0.105c-1.535-1.509-1.504-3.938,0.121-5.576c3.012-3.037,6.048-6.053,9.07-9.08
		c0.271-0.271,0.519-0.566,0.941-1.029c-16.014,0-31.787,0-47.563,0c-0.08-0.002-0.154,0.016-0.227,0.053c-2.479,0-4.957,0-7.436,0
		c-0.07-0.038-0.146-0.057-0.227-0.053c-3.559-0.002-7.115-0.004-10.673-0.004c-3.358,0-6.716,0.008-10.073-0.008
		c-0.662-0.003-1.107,0.021-1.146,0.918c-0.053,1.301-0.272,2.602-0.488,3.892c-0.906,5.423-2.236,10.733-4.254,15.858
		c-2.153,5.473-4.86,10.646-8.19,15.506c-2.347,3.422-4.998,6.592-7.802,9.631c-0.681,0.738-0.431,1.065,0.125,1.617
		c3.55,3.516,7.07,7.063,10.611,10.588c1.329,1.321,2.689,2.612,4.035,3.918c1.699,1.724,3.396,3.443,5.095,5.168
		c0.171,0.174,0.344,0.33,0.614,0.279c0.021,0.494,0.388,0.77,0.695,1.077c11.198,11.2,22.398,22.4,33.604,33.597
		c0.188,0.188,0.328,0.459,0.792,0.492c0-0.947,0-1.885,0-2.822c0-3.6,0.088-7.201-0.028-10.799
		c-0.09-2.757,1.762-4.285,3.864-4.418c2.146-0.136,4.038,1.782,4.057,4.283c0.058,7.919,0.054,15.84,0.009,23.758
		c-0.013,2.365-2.523,4.198-4.857,3.727c-0.426-0.086-0.871-0.096-1.309-0.098c-7.238-0.006-14.479-0.058-21.719,0.029
		c-2.173,0.025-3.863-1.561-3.973-3.906c-0.1-2.146,1.711-3.801,3.93-3.806c4.399-0.009,8.801,0,13.199-0.009
		c0.307,0,0.729,0.158,0.893-0.146c0.219-0.412-0.252-0.613-0.481-0.843c-11.308-11.319-22.621-22.632-33.937-33.942
		c-0.25-0.25-0.467-0.565-0.879-0.569c-1.789-1.906-3.596-3.794-5.563-5.521c-0.009-0.508-0.41-0.757-0.712-1.062
		c-1.152-1.165-2.313-2.319-3.472-3.478c-3.555-3.55-7.116-7.092-10.658-10.653c-0.419-0.423-0.676-0.354-1.085,0.006
		c-1.463,1.288-3.052,2.416-4.66,3.517c-6.421,4.395-13.352,7.729-20.804,9.979c-5.837,1.762-11.795,2.813-17.884,3.124
		c0-2.644,0-5.285,0-7.929c1.298-0.155,2.593-0.348,3.895-0.465c4.172-0.375,8.224-1.312,12.213-2.55
		c7.73-2.399,14.757-6.146,21.197-11.038c0.795-0.604,0.74-0.849,0.106-1.479c-7.338-7.301-14.652-14.627-21.969-21.948
		c-1.242-1.243-2.464-2.505-3.696-3.759c2.325-1.297,4.305-3.036,6.235-4.84c0.357,0.315,0.731,0.615,1.068,0.951
		c8.061,8.056,16.127,16.104,24.159,24.188c0.677,0.683,1.013,0.64,1.661-0.019c2.444-2.474,4.582-5.188,6.584-8.021
		c4.323-6.112,7.434-12.8,9.525-19.978c0.991-3.398,1.612-6.875,2.114-10.371c0.221-1.539,0.092-1.631-1.449-1.631
		c-11.315,0-22.631,0.002-33.946-0.004C113.188,154.477,112.63,154.43,112.072,154.404z"/>
	<path fill="#357EB9" d="M153.688,70.737c-1.711,1.973-3.601,3.768-5.501,5.551c-1.672-1.418-3.321-2.864-5.021-4.249
		c-9.111-7.425-19.28-12.942-30.415-16.661c-5.396-1.802-10.914-3.109-16.562-3.905c-3.064-0.432-6.136-0.673-9.213-0.917
		c-0.651-0.052-1.031,0.044-1.005,0.87c0.06,1.916,0.013,3.835,0.02,5.752c0.018,5.072,0.04,10.145,0.061,15.217
		c0,2.643-0.001,5.285-0.001,7.928c-0.028,0.476-0.081,0.952-0.082,1.427c-0.005,8.656,0,17.311-0.005,25.966
		c-0.002,3.19-0.028,6.38-0.043,9.57c-2.605-0.003-5.211-0.007-7.817-0.01c-0.011-0.439-0.033-0.878-0.033-1.317
		c-0.013-11.516-0.03-23.031-0.033-34.546c-0.003-11.272,0.005-22.544,0.014-33.816c0.001-1.358,0.071-2.717,0.047-4.075
		c-0.011-0.644,0.128-0.91,0.848-0.906c3.867,0.023,7.739-0.066,11.594,0.274c20.23,1.785,38.525,8.681,54.802,20.857
		C148.251,65.924,151.021,68.269,153.688,70.737z"/>
	<path fill="#357EB9" d="M86.051,215.436c0,2.644,0,5.285,0,7.929c-0.02,7.034-0.032,14.067-0.072,21.103
		c-0.004,0.715,0.355,0.76,0.893,0.737c2.537-0.106,5.051-0.404,7.572-0.7c5.038-0.59,9.97-1.645,14.832-3.061
		c13.419-3.912,25.432-10.426,36.051-19.512c1.967,1.727,3.774,3.613,5.563,5.521c-4.094,3.696-8.555,6.897-13.222,9.817
		c-10.789,6.748-22.447,11.34-34.906,13.869c-3.56,0.723-7.169,1.174-10.793,1.553c-4.258,0.447-8.512,0.381-12.772,0.455
		c-0.931,0.016-1.102-0.276-1.104-1.144c-0.024-11.635-0.213-23.271-0.108-34.903C78.1,204.506,78,191.913,78.072,179.32
		c0.001-0.279,0.023-0.56,0.035-0.838c2.604-0.004,5.208-0.006,7.812-0.01c0.017,0.479,0.046,0.955,0.047,1.434
		c0.002,11.328,0.001,22.654,0.005,33.982C85.97,214.404,86.022,214.92,86.051,215.436z"/>
	<path fill="#357EB9" d="M153.988,82.222c-0.03-0.477,0.359-0.688,0.636-0.946c1.644-1.532,3.037-3.325,4.87-4.659
		c6.889,7.396,12.529,15.657,16.994,24.712c4.203,8.522,7.236,17.442,8.941,26.807c0.881,4.842,1.586,9.692,1.688,14.627
		c0.024,1.178,0.263,2.361,0.161,3.555c-0.066,0.062-0.135,0.124-0.202,0.186c-2.479,0-4.957,0-7.437,0
		c-0.066-0.062-0.135-0.124-0.201-0.186c-0.121-1.583-0.127-3.171-0.213-4.756c-0.205-3.769-0.629-7.508-1.311-11.205
		c-1.729-9.382-4.73-18.353-9.104-26.842C164.82,95.762,159.919,88.632,153.988,82.222z"/>
	<path fill="#367EBA" d="M157.029,221.848c-0.271,0.051-0.443-0.105-0.614-0.279c-1.697-1.725-3.396-3.444-5.095-5.168
		c3.275-3.393,6.386-6.928,9.168-10.739c11.09-15.196,17.4-32.149,18.711-50.938c0.068-0.062,0.136-0.123,0.203-0.186
		c2.479,0,4.957,0,7.436,0c0.066,0.063,0.135,0.124,0.203,0.186c0.134,1.959-0.251,3.883-0.48,5.805
		c-0.427,3.561-1.054,7.093-1.838,10.603c-2.603,11.616-7.109,22.435-13.383,32.534C167.245,210.256,162.365,216.23,157.029,221.848
		z"/>
	<path fill="#538FC2" d="M187.077,146.504c0.067-0.062,0.136-0.124,0.202-0.186c0.009,0.08,0.017,0.159,0.023,0.239
		C187.225,146.559,187.148,146.541,187.077,146.504z"/>
	<path fill="#538FC2" d="M187.041,154.723c-0.068-0.063-0.137-0.125-0.203-0.187c0.071-0.037,0.146-0.056,0.227-0.054
		C187.057,154.563,187.049,154.643,187.041,154.723z"/>
	<path fill="#538FC2" d="M179.416,146.557c0.008-0.08,0.016-0.159,0.023-0.239c0.066,0.062,0.135,0.124,0.201,0.186
		C179.57,146.541,179.496,146.559,179.416,146.557z"/>
	<path fill="#538FC2" d="M179.199,154.723c-0.008-0.08-0.016-0.16-0.022-0.238c0.079-0.004,0.155,0.015,0.226,0.053
		C179.335,154.598,179.268,154.66,179.199,154.723z"/>
</g>
</svg>
