<?xml version="1.0" encoding="utf-8"?>
<!-- Generator: Adobe Illustrator 16.0.0, SVG Export Plug-In . SVG Version: 6.00 Build 0)  -->
<!DOCTYPE svg PUBLIC "-//W3C//DTD SVG 1.1//EN" "http://www.w3.org/Graphics/SVG/1.1/DTD/svg11.dtd">
<svg version="1.1" id="Layer_1" xmlns="http://www.w3.org/2000/svg" xmlns:xlink="http://www.w3.org/1999/xlink" x="0px" y="0px"
	 width="252px" height="154px" viewBox="0 0 252 154" enable-background="new 0 0 252 154" xml:space="preserve">
<g>
	<path fill-rule="evenodd" clip-rule="evenodd" fill="#67AFFA" d="M164.917,142.949c-0.728-0.064-1.455-0.128-2.182-0.191
		c-1.171-1.137-2.929-0.722-4.203-1.589c-1.063-0.869-3.258-1.681-0.246-2.849c1.32-0.512,1.054-1.054,0.318-1.876
		c-0.79-0.885-0.894-1.775,0.348-2.432c3.638-0.466,7.017,1.344,10.687,1.066c3.082-0.232,6.202,0.023,9.257-0.689
		c0.496,0.044-0.13-0.072,0.366-0.008c2.166,0.28,4.849,0.203,5.4,2.816c0.507,2.397-2.198,2.857-3.655,4.017
		c-3.179,1.203-6.498,1.544-9.862,1.617C169.069,142.871,166.989,142.735,164.917,142.949z"/>
	<path fill-rule="evenodd" clip-rule="evenodd" fill="#7EA0BA" d="M82.72,24.389c7.972-10.412,18.774-16.319,31.399-18.637
		c15.452-2.837,29.642,0.599,42.182,10.268c-0.25,0.326-0.575,0.535-0.976,0.628c-1.938,0.189-3.247-1.12-4.711-2.021
		c-19.348-11.915-45.05-9.443-61.616,5.936c-0.92,0.854-1.722,1.809-2.485,2.799c-0.715,0.874-1.458,1.716-2.634,1.978
		C83.229,25.346,82.905,24.952,82.72,24.389z"/>
	<path fill-rule="evenodd" clip-rule="evenodd" fill="#658CAB" d="M167.165,27.42c2.373,3.074,4.445,6.337,5.638,10.051
		c0.644,2.005,1.774,2.525,3.825,2.425c19.054-0.931,36.728,11.047,41.737,29.104c0.396,1.427,1.176,1.577,2.326,1.877
		c3.344,0.872,6.614,1.989,9.56,3.877c0.234,0.99-0.34,1.427-1.16,1.698c-3.144-1.443-6.271-2.917-9.68-3.685
		c-1.934-0.436-2.834-1.953-3.289-3.717c-3.744-14.501-19.097-27.495-39.093-27.187c-3.294,0.05-5.503-0.898-6.477-4.237
		c-0.944-3.237-3.653-5.657-4.354-9.035C166.248,27.976,166.386,27.431,167.165,27.42z"/>
	<path fill-rule="evenodd" clip-rule="evenodd" fill="#9CB7CA" d="M5.23,100.125c-1.87-7.813-0.092-15.352,2.616-22.494
		c5.139-13.555,14.382-23.655,27.573-29.96c0.518,0.194,0.924,0.479,0.909,1.112c-0.334,0.915-1.14,1.329-1.897,1.798
		c-14.505,8.23-24.13,20.033-26.968,36.813c-0.817,4.171,0.673,8.531-1.062,12.619C6.042,100.367,5.651,100.404,5.23,100.125z"/>
	<path fill-rule="evenodd" clip-rule="evenodd" fill="#28588F" d="M107.853,145.928c-3.558-0.862-6.577-2.785-9.537-4.831
		c-1.104-0.763-1.977-1.315-3.589-0.447c-12.461,6.709-25.708,9.45-39.821,7.32c-0.066-0.849,0.547-1.12,1.17-1.386
		c3.465-0.668,6.972-0.336,10.456-0.309c3.414,0.025,6.695-0.69,10.002-1.3c6.358-0.846,12.114-3.304,17.56-6.591
		c1.043-0.524,2.272-0.947,3.224-0.265c3.737,2.68,8.295,3.993,11.736,7.142C108.904,145.936,108.583,146.302,107.853,145.928z"/>
	<path fill-rule="evenodd" clip-rule="evenodd" fill="#628CAD" d="M82.72,24.389c0.229,0.248,0.458,0.497,0.686,0.746
		c0.37,1.387-0.455,2.413-1.135,3.423c-2.658,3.949-4.935,8.095-6.547,12.577c-0.829,2.305-2.375,2.832-4.682,2.604
		c-6.59-0.65-13.183-0.726-19.703,0.759c-1.24,0.256-2.473,0.373-3.656-0.242c-0.407-0.264-0.5-0.614-0.284-1.047
		c7.369-1.578,14.715-3.348,22.343-1.763c2.287,0.475,3.78-0.12,4.629-2.734C76.104,33.381,78.958,28.593,82.72,24.389z"/>
	<path fill-rule="evenodd" clip-rule="evenodd" fill="#305C8F" d="M171.203,142.148c3.315-0.068,6.629-0.151,9.705-1.638
		c5.268-2.47,10.657-4.706,15.259-8.4c1.476-1.185,3.181-1.299,4.928-0.527c5.38,2.495,11.168,2.722,16.939,3.051
		c0.587,0.255,1.098,0.571,1.015,1.335c-6.374,0.653-12.676,0.451-18.583-2.322c-2.337-1.096-3.447,0.596-4.869,1.581
		c-6.209,4.305-12.93,7.188-20.553,7.689C173.688,143.043,172.155,144.041,171.203,142.148z"/>
	<path fill-rule="evenodd" clip-rule="evenodd" fill="#89A8C5" d="M241.147,84.988c8.164,10.77,7.744,27.106-0.985,38.362
		c-0.361,0.316-0.698,0.293-1.012-0.072c-0.565-1.37,0.252-2.405,0.881-3.463c6.024-10.134,6.595-20.462,1.198-31.043
		c-0.603-1.18-1.652-2.27-1.169-3.802C240.427,84.707,240.79,84.713,241.147,84.988z"/>
	<path fill-rule="evenodd" clip-rule="evenodd" fill="#2D62A2" d="M159.1,140.565c0.731,1.528,3.516-0.35,3.636,2.192
		c-1.586-0.249-3.399-0.087-4.715-0.82c-4.784-2.664-8.66-1.185-12.81,1.646c-4.558,3.11-9.951,4.334-15.395,5.106
		c-0.463-0.466-1.732,0.115-1.548-1.193c2.585-1.983,5.899-1.673,8.796-2.771c3.643-1.379,7.258-2.748,10.365-5.087
		c2.764-2.081,5.502-2.284,8.271-0.389C156.787,139.994,157.998,140.062,159.1,140.565z"/>
	<path fill-rule="evenodd" clip-rule="evenodd" fill="#83A8C1" d="M5.23,100.125c0.276-0.001,0.552-0.003,0.827-0.004
		c1.352,1.165,1.374,2.869,1.723,4.413c1.275,5.631,3.269,10.957,6.481,15.786c1.046,2.762,4.286,4.249,4.404,7.554
		c-0.099,0.381-0.315,0.677-0.648,0.888C10.458,120.688,6.158,111.16,5.23,100.125z"/>
	<path fill-rule="evenodd" clip-rule="evenodd" fill="#658CAD" d="M239.238,123.229c0.308,0.04,0.615,0.08,0.924,0.121
		c-5.439,6.88-12.265,11.44-21.113,12.618c-0.231-0.213-0.462-0.426-0.693-0.639c-0.204-0.667,0.192-1.01,0.692-1.298
		c6.656-1.587,12.864-3.986,17.296-9.591C237.134,123.62,237.979,122.929,239.238,123.229z"/>
	<path fill-rule="evenodd" clip-rule="evenodd" fill="#638CAB" d="M18.017,128.762c0.047-0.366,0.094-0.734,0.141-1.101
		c3.51,0.689,4.882,4.307,7.859,5.726c3.441,3.414,8.119,5.054,11.764,8.178c0.091,0.647-0.264,0.965-0.833,1.123
		C29.578,139.487,23.293,134.811,18.017,128.762z"/>
	<path fill-rule="evenodd" clip-rule="evenodd" fill="#406B96" d="M36.949,142.688c0.239-0.213,0.478-0.425,0.716-0.638
		c1.405-0.969,2.647-0.042,3.88,0.404c3.881,1.407,7.812,2.602,11.919,3.147c0.975,0.236,2.075,0.297,2.289,1.611
		c-0.282,0.252-0.564,0.504-0.846,0.757C48.582,147.359,42.66,145.383,36.949,142.688z"/>
	<path fill-rule="evenodd" clip-rule="evenodd" fill="#7496B3" d="M167.165,27.42c-0.207,0.265-0.414,0.529-0.621,0.794
		c-2.335-0.163-2.857-2.425-4.214-3.706c-1.052-0.994-1.721-2.374-2.994-3.183c-1.608-1.536-3.938-2.505-4.1-5.183
		c0.354-0.041,0.709-0.081,1.063-0.122C160.653,19.124,164.271,22.928,167.165,27.42z"/>
	<path fill-rule="evenodd" clip-rule="evenodd" fill="#84ACC4" d="M241.147,84.988c-0.331,0.035-0.663,0.07-0.994,0.104
		c-3.945-2.271-6.689-5.985-10.341-8.612c-0.067-0.162-0.133-0.325-0.199-0.488c0.213-0.413,0.425-0.826,0.638-1.239
		C234.852,77.135,238.583,80.44,241.147,84.988z"/>
	<path fill-rule="evenodd" clip-rule="evenodd" fill="#7C9EB8" d="M47.398,43.209c-0.006,0.271-0.013,0.542-0.02,0.812
		c-3.099,3.124-7.083,3.962-11.239,4.354c-0.24-0.235-0.48-0.47-0.72-0.705C39.231,45.696,43.196,44.133,47.398,43.209z"/>
	<path fill-rule="evenodd" clip-rule="evenodd" fill="#306BA7" d="M107.853,145.928c0.324-0.222,0.647-0.444,0.971-0.666
		c3.818-0.494,7.297,0.601,10.654,2.274c-0.234,1.553-1.573,0.596-2.307,1.015C113.979,147.982,110.704,147.707,107.853,145.928z"/>
	<path fill-rule="evenodd" clip-rule="evenodd" fill="#3864BD" d="M171.203,142.148c1.09,1.208,2.586,0.386,3.841,0.769
		c-3.371,0.973-6.746,1.143-10.126,0.031C166.858,141.472,169.077,142.176,171.203,142.148z"/>
	<path fill-rule="evenodd" clip-rule="evenodd" fill="#325A76" d="M117.17,148.551c0.761-0.18,1.522-0.36,2.284-0.54
		c2.939-1.555,5.877-1.567,8.813,0.014c0.516,0.222,1.033,0.444,1.549,0.666C125.598,148.967,121.379,149.214,117.17,148.551z"/>
	<path fill-rule="evenodd" clip-rule="evenodd" fill="#97C9FC" d="M179.355,135.332c-7.064,1.573-14.049,0.761-21.011-0.703
		c-1.631,0.932-2.688-0.148-3.793-1.071c-1.688-1.899-3.553-2.979-6.237-1.933c-2.158,0.841-4.185-0.181-6.082-1.077
		c-8.627-4.072-17.555-3.996-26.618-2.021c-2.201,0.479-4.341,0.742-6.629,0.555c-4.414-0.364-8.504,1.348-12.659,2.518
		c-4.853,3.994-10.365,6.713-16.383,8.463c-5.927,1.456-11.8,3.47-18.028,1.695c-1.769-4.788,1.043-8.225,3.889-11.232
		c2.639-2.789,5.532-5.044,4.596-9.52c-0.271-1.3,0.906-2.442,2.176-2.715c5.951-1.274,11.645-3.996,17.932-3.408
		c3.891,0.363,7.519,1.029,10.115,4.691c1.81,2.554,4.341,3.963,8.085,2.563c3.812-1.425,7.986-1.794,11.755-3.642
		c2.406-1.182,5.149-0.787,7.753-0.332c7.63,1.334,15.278,2.497,23.039,2.705c1.927,0.052,3.813,0.517,5.306,1.64
		c4.141,3.12,8.794,5.549,12.504,9.241c2.224,2.215,5.089,1.666,7.786,1.859c0.832,0.029,1.631,0.179,2.342,0.647
		C179.554,134.568,179.607,134.928,179.355,135.332z"/>
	<path fill-rule="evenodd" clip-rule="evenodd" fill="#4EA3F9" d="M155.342,133.143c0.782,0.938,1.838,1.322,3.003,1.486
		c0.128,0.346,0.155,0.817,0.402,1.015c0.903,0.721,2.79,0.72,2.422,2.363c-0.43,1.921-2.365,0.654-3.542,1.217
		c-0.001,0.949,1.314,0.542,1.474,1.342c-0.373-0.009-0.823,0.117-1.105-0.047c-5.354-3.117-9.607-0.512-14.059,2.34
		c-4.722,3.024-10.323,3.801-15.669,5.167c-2.938-0.005-5.876-0.01-8.814-0.014c-3.543-0.918-7.087-1.835-10.63-2.751
		c-3.62-1.481-7.212-3.015-10.251-5.563c-1.196-1.003-2.464-1.545-3.99-0.745c-3.292-3.317-2.257-5.92,3.147-7.921
		c3.476,1.666,6.388,4.24,9.908,5.903c13.612,6.431,26.462,4.925,38.469-3.717C149.51,130.768,152.235,130.407,155.342,133.143z"/>
	<path fill-rule="evenodd" clip-rule="evenodd" fill="#7DBAF8" d="M179.355,135.332c0.006-0.245,0.013-0.489,0.021-0.734
		c2.659-2.608,6.718-2.522,9.482-4.93c2.117-0.64,3.47-2.576,5.549-3.288c4.453-0.637,6.324,0.169,7.336,3.117
		c0.468,1.362,0.538,2.485-1.322,2.677c-1.587-0.986-2.806-0.124-3.98,0.825c-4.596,3.711-9.711,6.338-15.532,7.513
		c0.057-0.11,0.117-0.219,0.17-0.332c0.641-1.409,3.786-0.981,2.887-3.136C183.31,135.477,181.094,135.43,179.355,135.332z"/>
	<path fill-rule="evenodd" clip-rule="evenodd" fill="#B8DBFA" d="M155.236,16.142c1.526,1.513,3.052,3.025,4.578,4.538
		c-0.347,2.666,0.175,5.085,1.653,7.395c0.615,0.961,1.776,2.381-0.195,3.389c-0.804-0.001-1.425-0.394-1.99-0.913
		c-12.501-15.223-28.813-20.266-47.738-17.107c-10.878,1.815-19.063,8.135-24.556,17.792c-0.849,1.492-1.489,3.196-3.309,3.874
		c-2.616-0.476-2.66-1.993-1.718-4.039c1.17-2.541,2.865-4.832,3.587-7.582c3.085-5.3,8.233-8.285,13.338-10.944
		c18.114-9.435,36.004-8.63,53.443,2.057C153.255,15.169,153.969,16.204,155.236,16.142z"/>
	<path fill-rule="evenodd" clip-rule="evenodd" fill="#A7D3FA" d="M85.548,23.489c1.436,3.353-1.663,5.343-2.713,7.817
		c-0.771,1.816-0.644,2.508,0.56,3.553c1.072,1.632,0.073,3.073-0.533,4.466c-0.783,1.797-1.465,3.611-1.883,5.526
		c-0.305,0.816-0.573,1.65-0.758,2.494c-0.657,2.988-2.49,3.714-5.267,2.957c-2.635-0.718-5.333-1.173-8.021-1.657
		c-0.823-0.073-1.634-0.194-2.407-0.502c-2.757-1.531-5.69-2.415-8.86-2.554c-1.726-0.075-3.532-0.074-4.646-1.791
		c6.621-2.185,13.433-1.76,20.155-1.005c2.267,0.254,3.07-0.054,3.711-2.074c1.821-5.738,5.028-10.745,8.521-15.584
		C84.12,24.586,84.834,24.038,85.548,23.489z"/>
	<path fill-rule="evenodd" clip-rule="evenodd" fill="#A4D0FA" d="M161.355,31.102c0.584-1.782-0.802-2.856-1.521-4.154
		c-1.167-2.104-2.131-4.171-0.019-6.269c2.85,1.969,4.201,5.277,6.729,7.534c1.859,3.509,4.316,6.72,5.421,10.605
		c0.641,2.253,2.341,2.149,4.131,2.105c10.134-0.246,19.371,2.353,27.508,8.58c6.418,4.91,11.091,11.039,13.244,18.872
		c0.687,2.497,1.98,3.652,4.504,4.013c3.037,0.435,5.807,1.716,8.261,3.603l-0.032,0.243c-0.319,3.824-3.467,3.279-5.908,3.837
		c-0.837,0.001-1.661-0.107-2.475-0.306c-1.778-0.415-3.503-1.123-5.369-1.087c-2.983,0.059-4.519-1.296-4.652-4.361
		c-0.052-1.192-0.494-2.387-0.893-3.54c-4.24-12.238-12.893-19.416-25.419-22.15c-4.576-0.828-9.146-0.917-13.728-0.023
		c-2.681,0.524-4.353-0.371-4.527-3.353c-0.234-4.022-2.931-7.084-4.267-10.681C161.922,33.439,160.896,32.483,161.355,31.102z"/>
	<path fill-rule="evenodd" clip-rule="evenodd" fill="#C6E2FA" d="M6.89,86.593c1.155-9.73,5.619-17.911,12.049-25.069
		c4.423-4.922,9.532-9.038,15.671-11.72c3.639-1.319,7.337-1.934,11.173-0.944c0.001,2.705-2.445,2.288-3.915,2.877
		c-11.149,4.474-18.827,12.487-23.986,23.137c-2.552,4.697-3.833,9.792-4.719,15.012c-0.038,1.405,0.055,2.809,0.021,4.212
		c-0.077,1.229,0.017,2.495-0.756,3.574c-3.402-0.109-2.997-3.019-3.317-5.001C8.75,90.44,8.38,88.351,6.89,86.593z"/>
	<path fill-rule="evenodd" clip-rule="evenodd" fill="#B7DAFC" d="M6.89,86.593c2.263,0.215,3.177,1.422,3.021,3.71
		c-0.187,2.749,0.305,5.375,2.214,7.546c1.831,3.672,2.07,7.833,3.571,11.604c0.515,2.46,2.027,4.451,3.141,6.628
		c0.543,1.062,1.569,1.968,1.053,3.36c-2.001,0.717-3.499,3.342-6.146,1.628c-4.433-6.297-6.691-13.391-7.686-20.948
		C6.639,95.63,5.15,91.012,6.89,86.593z"/>
	<path fill-rule="evenodd" clip-rule="evenodd" fill="#B6D8F8" d="M45.871,49.1c-3.753,0.235-7.507,0.469-11.26,0.705
		c0.509-0.477,1.019-0.954,1.529-1.43c3.746-1.452,7.493-2.905,11.239-4.356c1.214-0.072,2.428-0.147,3.641-0.222
		c3.493,1.403,7.464,0.179,10.908,2.021c0.962,0.515,2.192,0.54,2.709,1.737c-0.412,0.496-0.948,0.872-1.571,0.897
		c-5.19,0.207-10.348,0.775-15.511,1.294C46.927,49.81,46.346,49.54,45.871,49.1z"/>
	<path fill-rule="evenodd" clip-rule="evenodd" fill="#7AB8F9" d="M61.626,141.332c6.415,0.632,12.566-0.934,18.748-2.247
		c0.447,0.729,0.278,1.627-0.227,1.995c-1.617,1.181-1.88,3.083-2.786,4.633c-7.074,2.356-14.369,1.541-21.609,1.5
		c-0.658-0.756-1.639-0.507-2.451-0.786c-1.906-1.987-0.043-3.075,1.165-4.021c1.236-0.968,2.796-1.516,4.382-1.843
		C59.876,140.446,60.851,140.534,61.626,141.332z"/>
	<path fill-rule="evenodd" clip-rule="evenodd" fill="#65ADFA" d="M77.361,145.713c-0.739-3.001,2.327-4.273,3.013-6.628
		c5.332-2.14,10.828-3.982,15.011-8.22c0.922-0.314,2.006-1.135,2.238,0.714c-4.78,2.796-4.819,2.891-3.041,7.374
		C89.373,142.561,83.616,144.771,77.361,145.713z"/>
	<path fill-rule="evenodd" clip-rule="evenodd" fill="#8CC4F9" d="M200.421,132.174c1.325-2.606-0.297-5.395-3.146-5.353
		c-0.968,0.015-1.933,0.179-2.898,0.274c-0.224-2.25,1.72-2.56,3.054-3.417c2.842,0.092,4.97,2.1,7.582,2.817
		c1.896,1.125,4.131,1.318,6.119,2.189c2.17,0.567,4.356,1.08,6.185,2.498c1.098,0.852,2.271,1.635,1.792,3.323
		c-0.25,0.275-0.501,0.549-0.752,0.823C212.122,135.73,206.064,135.13,200.421,132.174z"/>
	<path fill-rule="evenodd" clip-rule="evenodd" fill="#B4D8F8" d="M223.596,79.102c2.458,0.011,4.559-0.726,5.985-2.866
		c4.607,1.658,7.451,5.423,10.571,8.857c7.765,12.188,7.868,24.343-0.132,36.478c-0.333,0.505-0.523,1.104-0.781,1.66
		c-0.714,0.533-1.427,1.068-2.141,1.604c-2.156-1.647-3.98-1.429-5.843,0.652c-1.379,1.541-3.23,2.271-5.318,1.086
		c-0.566-1.865,1.189-2.051,2.095-2.782c1.221-0.987,2.284-2.114,3.347-3.25c3.652-3.991,6.571-8.348,6.992-13.956
		c0.82-7.664-0.989-14.469-6.367-20.2c-1.801-1.92-3.704-3.622-6.063-4.831C224.921,81.029,223.463,80.785,223.596,79.102z"/>
	<path fill-rule="evenodd" clip-rule="evenodd" fill="#ABD1FA" d="M13.744,121.069c1.182,0.014,2.381,0.181,3.124-1.139
		c0.723-1.286,1.758-0.879,2.762-0.341c2.29,0.625,3.133,2.874,4.77,4.233c1.234,1.771,3.217,2.734,4.648,4.294
		c0.962,0.958,2.153,1.614,3.226,2.428c1.407,1.628,4.833,1.622,4.07,5.011c-0.922,1.173-2.153,1.29-3.231,0.498
		c-2.285-1.68-4.908-1.928-7.568-2.159c-3.066-1.361-4.804-4.296-7.385-6.233C16.687,125.463,15.215,123.266,13.744,121.069z"/>
	<path fill-rule="evenodd" clip-rule="evenodd" fill="#A1CEF9" d="M225.853,126.334c2.462,0.409,4.175-0.699,5.883-2.41
		c2.861-2.868,3.738-2.619,5.363,0.91c-4.593,5.835-10.737,8.786-17.991,9.674c-1.648-3.497-5.248-3.857-8.27-5.147
		c0.24-0.317,0.546-0.546,0.916-0.689c3.734-0.384,7.511-0.546,11.063-1.966c0.67-0.277,1.351-0.525,2.061-0.684
		C225.25,125.975,225.575,126.081,225.853,126.334z"/>
	<path fill-rule="evenodd" clip-rule="evenodd" fill="#97C9FC" d="M25.543,133.895c2.394-1.317,4.6-1.067,6.766,0.614
		c1.087,0.845,2.241,2.081,3.835,0.796c0.416-0.634,0.877-1.183,1.761-0.934c3.1,1.314,6.152,2.769,9.505,3.381
		c0.896,0.278,1.804,0.507,2.71,0.752c1.923,0.41,3.843,0.804,5.789,1.093c1.092,0.163,2.632-0.104,2.714,1.74
		c-1.931,1.533-5.82,1.018-5.324,5.09c-5.503-0.421-10.516-2.591-15.637-4.377C33.583,139.393,28.918,137.603,25.543,133.895z"/>
	<path fill-rule="evenodd" clip-rule="evenodd" fill="#A7D0FE" d="M49.624,139.088c-0.823-0.026-1.708,0.133-2.248-0.745
		c-0.239-1.295,0.755-1.89,1.61-2.202c3.367-1.232,4.74-4.204,6.484-6.924c1.298-2.025,0.674-3.056-1.296-4.07
		c-4.126-2.125-4.298-4.327-0.555-7.099c6.26-4.635,13.261-7.997,20.461-10.778c4.205-1.624,8.888-0.644,13.363-0.527
		c0.993,0.025,1.994,0.408,2.975,0.24c8.136-1.395,15.478,1.557,22.801,4.297c4.038,1.512,7.87,2.18,11.929,0.271
		c3.768-1.772,7.865-1.45,11.803-1.152c7.405,0.56,14.957,0.586,21.847,4.038c0.556,0.279,1.154,0.564,1.763,0.609
		c10.17,0.739,17.831,6.499,25.309,12.62c1.058,0.865,2.451,1.271,3.274,2.442c-2.563,3.002-6.37,3.301-9.767,4.489
		c-0.755-0.004-1.51-0.009-2.265-0.013c-1.735-0.854-1.941-2.827-3.042-4.157c-5.244-6.335-12.201-9.757-20.057-11.246
		c-7.54-1.429-15.229-2.004-22.856-2.839c-7.717-0.846-15.171,1.157-22.058,4.531c-5.436,2.662-7.81,1.855-8.607-4.051
		c-0.188-1.385-0.591-2.507-2.046-2.731c-10.09-1.559-20.104-2.323-29.48,3.08c-1.67,0.962-2.701,1.864-1.79,4.121
		c0.955,2.364-0.611,4.345-1.995,6.104c-2.09,2.658-4.085,5.33-5.194,8.589c-0.765,2.247-2.521,3.354-4.856,3.458
		C53.287,139.526,51.423,139.742,49.624,139.088z"/>
	<path fill-rule="evenodd" clip-rule="evenodd" fill="#A4CFFD" d="M49.624,139.088c2.146,0.238,4.182-0.505,6.269-0.683
		c1.837-0.156,2.814-1.101,3.189-2.626c0.895-3.646,3.294-6.28,5.457-9.17c1.338-1.786,4.125-4.009,0.604-6.591
		c-0.938-0.688-0.303-1.506,0.553-2.064c4.854-3.166,10.018-5.644,15.893-5.81c5.458-0.152,10.941-0.384,16.383,0.661
		c2.653,0.51,4.557,1.1,3.483,4.504c-0.437,1.386-0.224,2.963,1.501,3.827c1.616,0.809,2.8,0.542,4.453-0.338
		c8.49-4.522,17.397-6.893,27.167-4.88c3.9,0.805,8.009,1.045,11.933,1.207c8.619,0.355,16.181,3.21,23.267,7.635
		c3.599,2.247,6.304,5.494,7.336,9.824c-2.22-0.126-4.487,0.369-6.642-0.605c-1.268-0.573-3.14-0.419-2.831-2.704
		c0.043-0.32-0.529-1.018-0.865-1.05c-4.143-0.409-6.051-4.099-9.115-6.064c-2.414-1.55-5.028-2.394-8.077-2.405
		c-7.067-0.027-14.049-1.215-20.985-2.496c-3.67-0.677-7.078-0.647-10.446,1.261c-3.953,2.24-8.611,2.133-12.885,3.387
		c-2.342,0.688-4.216-2.012-5.331-3.512c-4.443-5.974-10.347-4.766-16.157-3.962c-3.418,0.473-6.737,1.638-10.122,2.396
		c-1.844,0.413-3.18,1.144-2.271,3.261c1.153,2.687-0.072,4.966-1.861,6.296c-4.466,3.319-6.914,7.626-7.896,12.946
		c-1,0.001-2,0.004-3.001,0.005C55.811,139.844,52.366,140.874,49.624,139.088z"/>
	<path fill-rule="evenodd" clip-rule="evenodd" fill="#88C0FD" d="M97.623,131.579c-0.537-0.893-1.417-0.712-2.238-0.715
		c5.024-1.303,9.822-4.048,15.295-2.508c1.341,0.378,2.476-0.267,3.606-0.592c7.07-2.033,14.173-1.841,21.33-0.681
		c2.11,0.343,3.997,1.241,5.94,2.067c2.524,1.072,4.856,2.608,8.019,1.131c2.477-1.157,4.341,0.862,5.768,2.859
		c-4.508-2.981-7.681,0.238-11.034,2.423c-12.506,8.147-25.303,8.183-38.447,1.619C102.836,135.673,100.254,133.614,97.623,131.579z
		"/>
	<path fill-rule="evenodd" clip-rule="evenodd" fill="#B4D7FD" d="M189.143,130.108c-4.523-0.542-7.372-4.104-10.459-6.658
		c-4.762-3.94-9.989-5.842-15.806-6.867c-1.094-0.193-2.26-0.284-3.246-0.74c-9.039-4.176-18.669-4.492-28.364-4.533
		c-1.919-0.009-3.822,0.146-5.446,1.031c-4.774,2.6-9.13,1.201-13.865-0.441c-6.794-2.358-13.451-5.155-21.221-3.942
		c-4.069,0.635-8.617-0.353-12.959-0.363c-1.24-0.003-2.472-0.076-3.66,0.511c-6.796,3.356-13.804,6.309-20.032,10.731
		c-1.269,0.901-2.656,1.877-2.429,3.47c0.226,1.578,1.94,1.562,3.269,1.948c3.312,0.962,3.243,2.445,1.608,5.488
		c-2.162,4.024-5.314,6.577-9.157,8.601c-3.638-0.249-6.92-1.423-9.76-3.748c4.135-1.098,6.897-4.701,10.976-5.965
		c1.842-0.57,1.912-1.789,0.288-2.934c-0.407-0.286-0.889-0.446-1.316-0.697c-3.596-2.108-3.615-3.88-0.725-6.963
		c6.651-7.097,14.866-11.037,24.313-12.716c1.797-0.346,3.614-0.271,5.426-0.301c6.226-0.26,12.24-2.076,18.441-2.503
		c5.004-0.344,9.952-0.167,14.694,1.701c1.394,0.549,2.821,1.047,4.152,1.728c5.394,2.758,10.478,4.057,16.605,1.01
		c5.896-2.931,12.558-0.568,18.872-0.154c8.912,0.585,16.95,3.731,24.41,8.567c2.324,1.507,5.023,2.185,7.803,2.451
		c3.449,0.33,6.623,1.299,9.01,4.021c0.974,1.109,2.163,1.607,3.664,1.452c1.117-0.114,2.269-0.158,3.136,0.799
		c-0.996,1.002-1.993,2.003-2.99,3.005C192.521,127.907,191.675,130.473,189.143,130.108z"/>
	<path fill-rule="evenodd" clip-rule="evenodd" fill="#EEF5FD" d="M80.309,44.539c-0.121-3.593,2.664-6.26,3.086-9.68
		c2.654-2.665,3.941-6.237,6.216-9.215c6.577-8.605,15.509-12.858,25.756-13.902c13.524-1.379,26.146,1.828,37.029,10.416
		c2.917,2.302,5.824,4.687,7.479,8.178c1.907,4.067,3.458,8.28,5.115,12.451c0.325,0.821,0.798,1.667,0.153,2.46
		c-0.639,0.786-1.588,0.765-2.394,0.297c-1.568-0.913-2.609-0.667-2.996,1.193c-0.39,1.877,0.864,2.553,2.34,2.636
		c3.239,0.181,5.675,1.644,7.632,4.14c1.449,1.848,1.499,3.713-0.706,4.639c-8.638,3.625-16.728,9.146-26.979,7.176
		c-3.967-0.763-8.308-1.034-11.269,3.013c-0.511,0.699-1.458,1.019-2.342,1.062c-4.983,0.245-10.01,0.779-14.921-0.385
		c-4.527-1.073-9.049-1.797-13.71-1.654c-10.727,0.329-21.482-0.677-32.19,0.667c-0.867,0.109-1.758,0.054-2.6-0.22
		c-2.15-0.7-2.776-2.474-0.928-3.482c6.336-3.455,10.657-9.427,16.835-13.004c1.511-0.875,3.265-1.27,4.792-2.124
		c1.805-1.009,3.17-2.652,1.984-4.575c-1.341-2.176-3.004-0.6-4.391,0.459C82.093,46.008,80.822,47.38,80.309,44.539z"/>
	<path fill-rule="evenodd" clip-rule="evenodd" fill="#E0EDFD" d="M80.309,44.539c0.619,1.246,1.177,1.422,2.024,0.093
		c1.276-2,3.179-2.763,5.499-2.129c1.553,0.425,1.553,1.763,1.534,3.042c-0.038,2.563-1.289,4.244-3.748,4.953
		c-5.219,1.507-9.18,4.751-12.652,8.805c-2.139,2.497-5.47,3.369-8.012,5.357c-0.562,0.439-1.551,0.629-1.259,1.557
		c0.251,0.802,1.144,0.919,1.904,0.861c2.842-0.218,5.679-0.67,8.52-0.698c9.365-0.09,18.731-0.002,28.096-0.049
		c3.891-0.019,7.639,0.716,11.383,1.662c5.037,1.272,10.172,0.395,15.262,0.502c0.433,0.009,1.1-0.308,1.279-0.665
		c2.79-5.546,8.09-4.289,12.189-3.5c7.037,1.354,12.854-1.319,18.924-3.65c2.427-0.932,4.768-2.082,7.152-3.122
		c1.767-0.77,2.387-1.739,0.744-3.31c-1.955-1.871-3.554-4.111-6.878-3.761c-1.445,0.152-3.804-0.104-4.076-1.809
		c-0.271-1.689,0.581-3.653,1.723-5.192c0.654-0.883,1.412-0.982,2.046,0.087c0.576,0.974,1.299,2.345,2.491,1.42
		c1.176-0.91-0.724-1.542-0.84-2.363c-0.61-4.301-4.147-7.7-3.739-12.293c0.494,0.255,0.987,0.511,1.48,0.767
		c2.748,4.821,6.009,9.482,6.474,15.195c0.16,1.959,0.832,1.535,2.027,1.368c5.16-0.719,10.33-1.295,15.497-0.023
		c1.287,3.533,0.205,5.502-3.365,6.089c-0.987,0.162-1.995,0.104-2.989,0.191c-0.858,0.075-1.744,0.083-2.571,0.879
		c2.856,4.069,6.413,6.441,11.591,6.875c7.241,0.605,13.335,7.314,13.317,13.892c-0.013,4.394-1.743,5.726-5.856,4.447
		c-1.667-0.518-3.347-1.031-4.697-2.239c-0.757-0.677-1.674-1.385-2.655-1.244c-5.123,0.732-9.058-1.973-13.151-4.305
		c-0.983-0.56-1.949-1.07-2.646-2.013c-4.165-5.645-10.42-6-16.371-2.222c-5.797,3.681-11.316,7.816-18.349,9.729
		c-4.862,1.321-10.092,2.663-14.51,5.656c-2.296,1.557-5.192,1.887-7.558,0.742c-3.292-1.591-6.72-1.876-10.163-2.146
		c-7.817-0.612-15.52-2.511-23.451-1.902c-3.266,0.251-6.456,0.61-9.496,1.87c-0.924,0.384-1.839,0.837-2.837,0.938
		c-9.195,0.925-17.009,4.925-24.405,10.277c-3.174,2.296-7.048,3.583-10.113,6.252c-1.579,1.376-3.772,1.069-5.745,0.401
		c-4.252-1.437-8.2-3.602-12.401-5.175c-2.337-0.875-3.711-2.864-4.785-5.042c1.437-5.103,1.584-10.652,5.203-14.999
		c4.152-5.306,8.383-10.442,13.972-14.465c5.084-3.66,10.559-6.12,16.559-7.42c6.412-1.39,12.747-3.002,18.973-5.057
		c2.636,0.499,5.387,0.678,7.877,1.579c2.991,1.082,4.292,0.252,4.722-2.722C79.55,45.823,80.013,45.193,80.309,44.539z"/>
	<path fill-rule="evenodd" clip-rule="evenodd" fill="#F3FBFB" d="M66.853,47.649c-0.066,0.65-0.289,1.438-0.928,1.463
		c-3.723,0.142-6.781,2.442-10.387,3.03c-5.948,0.969-11.841,2.113-17.312,4.963c-7.347,3.828-13.505,8.903-18.161,15.773
		c-0.644,0.951-1.446,1.719-2.715,1.712c2.463-6.473,6.583-11.789,11.733-16.291c4.897-4.282,10.793-6.859,16.788-9.201
		c6.193-1.271,12.454-1.721,18.766-1.544C65.375,47.587,66.114,47.619,66.853,47.649z"/>
	<path fill-rule="evenodd" clip-rule="evenodd" fill="#D1E6FD" d="M239.345,106.838c-0.668,5.71-3.226,10.43-7.479,14.258
		c-0.652,0.375-1.229,0.856-1.841,1.288c-3.087,2.176-5.702,1.556-7.055-1.964c-1.205-3.138-2.471-6.261-3.354-9.53
		c-0.903-3.349-1.827-3.645-4.723-1.938c-0.754,0.443-1.507,0.882-2.282,1.285c-8.365,4.349-10.32,3.84-16.84-2.832
		c-3.584-3.667-7.967-6.44-13.112-7.607c-1.913-0.435-3.495-1.229-4.678-2.824c-1.864-2.515-4.405-3.508-7.509-3.38
		c-1.99,0.081-4.005,0.178-5.982-0.146c-3.174-0.518-4.937-2.83-4.489-5.771c0.254-1.667,1.772-3.548,0.28-4.954
		c-1.859-1.753-4.889-2.542-6.976-1.926c-5.755,1.7-11.952,0.982-17.496,3.614c-2.956,1.403-5.659,3.21-8.342,4.993
		c-8.521,5.666-18.103,7.049-27.665,5.333c-8.026-1.44-15.591-0.587-23.332,0.682c-7.299,1.195-14.362,2.986-20.693,7.113
		c-4.682,3.052-9.983,3.363-15.476,3.151c-7.614-0.292-7.633-0.078-7.647,7.623c-0.004,2.379-0.081,4.743-0.684,7.061
		c-1.013,3.887-4.162,4.98-7.352,2.55c-0.199-0.151-0.452-0.283-0.554-0.497c-2.234-4.725-5.971-8.377-8.941-12.576
		c-1.789-3.801-3.081-7.727-3-11.994c0.006-1.253,0.012-2.507,0.018-3.76c2.398-0.554,2.88,1.396,3.721,2.862
		c0.568,0.989,1.251,2.361,2.507,1.501c3.627-2.485,6.786-0.176,9.923,0.878c6.35,2.135,12.469,2.354,18.344-1.165
		c4.149-2.485,8.999-3.761,12.487-7.412c1.03-1.079,2.648-1.422,4.132-1.64c10.594-1.556,21.026-4.382,31.914-3.586
		c4.494,0.329,8.913,0.647,13.281,1.92c7.877,2.293,14.985,0.015,21.737-4.097c6.597-4.017,13.677-7.204,20.042-11.628
		c1.043-0.725,2.301-1.103,3.566-0.912c2.974,0.449,5.979,0.394,8.956,0.683c4.161,0.403,5.427,1.863,5.6,5.982
		c0.256,6.065,0.51,6.541,6.377,6.546c4.161,0.004,6.749,2.963,10.106,4.447c5.382,2.377,9.36,7.376,15.671,8.105
		c2.281,0.264,2.991,2.812,4.312,4.436c1.261,1.55,2.213,4.243,4.883,2.906c2.419-1.213,1.6-3.687,1.122-5.722
		c-1.304-5.555-5.755-7.81-10.488-9.681c-1.328-0.525-3.228-0.249-3.437-2.259c-0.184-1.769,1.27-2.582,2.501-3.437
		c0.928-0.645,1.917-1.235,3.031-1.433c4.542-0.802,6.574-3.641,6.798-8.08c0.063-1.259,0.409-2.479,1.626-3.203
		c0.41,6.274,4.351,8.382,10.001,8.502c0.181,0.003,0.356,0.308,0.534,0.471c-1.953,1.503-4.277,1.916-6.626,2.07
		c-1.946,0.127-2.916,1.193-3.387,2.897c-0.506,1.83,0.755,2.509,2.012,3.487c3.652,2.843,7.544,5.169,11.977,6.518
		c1.589,0.482,1.867,1.75,2.331,3.067c1.013,2.873,1.396,5.928,3.878,8.292c1.738,1.656,3.009,2.816,5.351,1.438
		C237.654,106.416,238.538,106.104,239.345,106.838z"/>
	<path fill-rule="evenodd" clip-rule="evenodd" fill="#D9EAFD" d="M210.854,70.103c-1.44,2.964,0.239,6.712-2.696,9.439
		c-1.337,1.244-2.445,2.442-4.299,2.524c-1.449,0.063-2.706,0.563-3.758,1.47c-0.97,0.835-2.953,1.069-2.52,2.836
		c0.405,1.651,2.123,0.776,3.246,1.022c5.415,1.187,10.894,7.216,11.506,12.718c0.271,2.431-0.128,4.537-2.764,5.464
		c-2.34,0.823-3.36-0.805-4.396-2.437c-0.731-1.149-1.704-2.163-2.318-3.365c-0.956-1.874-2.267-2.94-4.438-2.682
		c-2.481,0.298-4.348-0.733-5.775-2.679c-0.684-0.931-1.487-1.763-2.597-2.059c-4.265-1.139-7.486-4.045-10.982-6.456
		c-1.765-1.217-3.608-0.734-5.422-0.781c-5.596-0.144-6.273-0.765-6.278-6.209c-0.005-5.98-0.556-6.505-6.646-6.576
		c-1.979-0.022-3.959,0.196-5.923-0.529c-1.783-0.657-3.356,0.176-4.896,1.155c-9.1,5.788-18.247,11.545-28.337,15.456
		c-4.518,1.751-9.479,1.498-14.018-0.083c-3.116-1.086-6.252-1.519-9.4-1.674c-9.723-0.478-19.293,0.402-28.873,2.555
		c-5.043,1.133-9.299,2.475-13.752,5.477c-4.533,3.055-9.701,6.297-15.458,7.106c-5.59,0.785-10.999-0.755-16.103-3.003
		c-1.977-0.871-3.432-1.103-4.911,0.721c-1.633,2.012-2.596,0.924-3.525-0.826c-0.892-1.68-0.996-3.999-3.38-4.599
		c0.001-1.499,0.002-2.999,0.004-4.498c4.881,5.328,11.943,6.594,18.083,9.54c1.832,0.879,4.197,0.521,5.749-1.498
		c1.662-2.161,3.92-3.462,6.544-4.06c1.429-0.326,2.437-1.154,3.413-2.149c2.041-2.079,4.609-3.338,7.159-4.673
		c7.594-3.977,16.012-5.229,24.185-7.087c5.912-1.344,12.18-1.306,18.157,0.154c4.167,1.018,8.411,0.515,12.576,1.415
		c2.483,0.536,4.873,0.415,7.352,1.878c2.317,1.367,5.65,1.084,8.07-1.034c1.566-1.372,3.477-1.657,5.29-2.378
		c6.159-2.446,13.051-3.263,18.471-7.277c3.577-2.65,7.784-4.182,11.113-7.355c2.74-2.611,6.427-0.038,9.689,0.152
		c2.438,0.141,4.758,0.733,4.734,3.984c-0.003,0.324,0.281,0.901,0.502,0.938c4.287,0.715,6.71,6.077,11.428,5.096
		c4.683-0.973,7.338,2.697,11.048,3.857c3.824,1.197,4.63,0.787,4.648-3.32c0.025-5.839-5.98-13.281-11.629-12.988
		c-6.373,0.33-9.641-4.1-13.912-7.106c-1.207-0.85-0.585-1.634,0.606-2.138c1.544-0.652,3.136-0.702,4.768-0.708
		c4.616-0.015,5.06-0.484,5.162-5.193c9.534,2.104,16.986,7.256,22.479,15.302C209.325,65.131,210.059,67.627,210.854,70.103z"/>
	<path fill-rule="evenodd" clip-rule="evenodd" fill="#D9EAFD" d="M239.345,106.838c-0.949-0.012-1.556,0.729-2.338,1.049
		c-2.11,0.863-3.411,1.554-5.725-1.189c-2.781-3.296-3.628-6.773-4.706-10.461c-0.192-0.656-0.422-1.214-1.129-1.296
		c-5.585-0.655-9.266-5.077-14.144-7.142c-1.603-0.68-1.427-2.387-1.094-3.631c0.467-1.749,1.313-4.372,3.172-4.038
		c2.949,0.53,5.269-1.509,8.007-1.055c0.736,0.009,1.472,0.018,2.207,0.026c3.394,1.96,6.797,3.781,9.478,6.866
		C238.36,92.048,240.246,98.982,239.345,106.838z"/>
	<path fill-rule="evenodd" clip-rule="evenodd" fill="#C8E3FD" d="M15.125,109.843c0.965,0.758,1.458,1.943,2.679,2.524
		c2.59,1.232,4.242,3.237,4.919,6.154c0.292,1.255,1.204,2.483,2.126,3.443c1.168,1.215,2.782,1.681,4.486,1.222
		c1.566-0.422,1.274-1.856,1.629-3.022c1.122-3.687,0.772-7.454,0.575-11.15c-0.173-3.245,1.373-4.27,4.086-4.385
		c2.618-0.11,5.293-0.355,7.856,0.032c4.817,0.73,8.977-1.064,12.649-3.497c6.657-4.408,14.131-5.956,21.72-6.943
		c4.402-0.574,8.639-2.228,13.255-1.698c5.532,0.633,10.986,1.688,16.646,1.713c8.58,0.036,15.739-3.291,22.552-7.791
		c4.573-3.021,9.292-5.249,14.899-5.115c0.987,0.023,2.249,0.226,2.926-0.274c3.765-2.783,7.607-0.928,11.386-0.356
		c3.26,0.494,2.94,2.863,2.171,5.161c-1.64,4.896-0.424,6.786,4.665,6.705c5.296-0.085,10.659-0.632,13.604,5.313
		c0.412,0.833,1.574,0.538,2.397,0.761c6.13,1.653,11.47,4.612,15.448,9.694c3.232,4.128,7.632,4.922,12.154,2.06
		c1.974-1.249,4.299-1.763,6.037-3.601c1.346-1.424,4.271,0.125,4.456,2.653c0.291,3.965,2.609,7.174,3.46,10.933
		c0.472,2.081,2.498,3.818,5.208,1.787c0.757-0.567,1.822-0.723,2.748-1.068c-1.324,2.527-3.94,3.571-6.013,5.238
		c-0.245,0.006-0.49,0.01-0.735,0.012c-2.078,0.628-4.181,0.257-6.259,0.06c-1.684-0.159-3.122-0.955-3.944-2.514
		c-2.654-5.028-6.798-7.409-12.469-7.027c-3.516,0.235-6.527-0.913-9.527-2.69c-6.206-3.678-11.821-8.64-18.743-10.762
		c-9.556-2.928-18.606-7.702-29.026-7.798c-4.283-0.039-8.658-0.963-12.917-1.848c-1.949-0.404-2.622-0.214-2.93,1.862
		c-0.558,3.768-1.885,4.7-5.273,2.771c-5.57-3.169-10.96-2.547-16.557-0.626c-0.396,0.124-0.798,0.202-1.207,0.258
		c-8.341,1.436-16.798,1.008-25.194,1.472c-5.683,0.313-10.299,3.507-15.639,4.645c-3.508,0.748-6.863,2.205-10.467,2.652
		c-1.418,0.319-2.86,0.332-4.302,0.336c-5.01-0.677-9.242,0.573-12.788,4.44c-1.822,1.987-2.666,3.792-1.508,6.316
		c0.519,1.131,0.961,2.307,1.143,3.545c0.689,4.683-2.629,7.71-7.192,6.501c-2.432-0.646-4.644-1.746-6.208-3.842
		c-2.123-0.876-3.072-2.92-4.479-4.508C18.589,116.127,15.278,113.715,15.125,109.843z"/>
	<path fill-rule="evenodd" clip-rule="evenodd" fill="#B6D8FD" d="M197.365,124.091c-3.405,0.439-6.535,0.934-8.968-2.813
		c-1.375-2.116-4.53-2.189-7.168-2.476c-3.735-0.406-6.974-1.854-10.234-3.962c-4.733-3.058-10.116-5.309-15.709-6.29
		c-5.716-1.003-11.571-1.282-17.379-1.675c-4.167-0.282-8.162,0.534-11.716,2.918c-2.187,1.466-4.353,0.638-6.426-0.202
		c-3.804-1.539-7.45-3.535-11.343-4.771c-5.969-1.896-12.084-1.497-18.292-0.749c-4.533,0.548-8.865,2.37-13.511,2.015
		c-0.178-1.329,0.833-1.856,1.751-2.036c8.406-1.651,16.588-4.649,25.221-4.887c6.957-0.19,13.555,1.974,19.815,4.814
		c2.392,1.086,4.08,1.396,5.943-0.621c1.991-2.153,4.585-2.769,7.468-2.813c4.276-0.065,8.424,0.858,12.634,1.271
		c6.897,0.674,13.308,2.799,19.614,5.508c2.229,0.959,4.108,2.287,5.951,3.795c3.107,2.54,6.229,5.066,10.75,3.874
		c1.193-0.314,2.457,0.205,3.673,0.513c5.477,1.386,9.247,5.739,14.153,8.129c0.983,0.479,1.452,1.682,1.469,2.89
		c-0.069,0.193-0.141,0.385-0.212,0.577C202.041,126.879,199.948,124.873,197.365,124.091z"/>
	<path fill-rule="evenodd" clip-rule="evenodd" fill="#B6D8FD" d="M211.608,129.31c-0.257,0.018-0.513,0.034-0.77,0.051
		c-1.978-0.805-4.396-0.438-5.988-2.263c0,0.001,0.021-0.028,0.021-0.028C208.322,125.759,209.865,126.271,211.608,129.31z"/>
	<path fill-rule="evenodd" clip-rule="evenodd" fill="#C1DEFD" d="M211.608,129.31c-1.898-1.789-4.179-2.435-6.738-2.24
		c-0.935-2.348-2.557-3.818-5.048-4.563c-3.829-1.143-5.872-5.343-10.163-5.956c-2.089-0.299-3.996-0.901-6.191-0.247
		c-3.916,1.167-6.091-2.232-8.677-4.045c-6.354-4.457-13.037-7.66-20.888-8.498c-5.521-0.59-10.898-2.204-16.542-2.246
		c-3.38-0.026-6.118,0.741-8.225,3.428c-1.458,1.858-2.725,1.785-5.025,0.687c-9.405-4.495-19.116-7.438-29.752-4.141
		c-4.573,1.417-9.364,2.16-14.084,3.058c-1.379,0.263-2.697,0.397-3.655,1.54c-1.999,0.003-3.997,0.004-5.995,0.006
		c-3.895,0.613-7.71,1.604-11.685,1.871c-6.546,0.438-11.132,4.497-15.261,9.096c-1.514,1.686-1.348,3.519,0.073,5.412
		c2.817,3.756,2.697,4.194-0.915,7.222c-0.762,0.639-1.515,1.29-2.334,1.856c-1.998,1.382-3.971,2.843-6.134,0.198
		c-0.676-0.827-1.983-0.113-2.741-0.908c-1.091-0.628-2.455-0.893-2.996-2.253c1.342-1.229,2.716-0.464,4.181-0.218
		c4.467,0.751,7.1-2.475,5.433-6.564c-0.997-2.445-3.493-4.842-1.194-7.524c2.935-3.427,5.566-7.501,10.826-7.809
		c0.839-0.049,1.75,0.287,2.499-0.38c1.5,0,3-0.001,4.499-0.001c6.956-0.737,13.667-2.519,20.268-4.771
		c5.937-0.2,11.706-1.953,17.664-1.924c4.545-1.112,9.371-0.545,13.812-2.304c0.25,0,0.5,0,0.75-0.001
		c5.172-0.805,10.108,0.175,14.835,2.193c4.55,1.944,4.533,2.056,7.731-1.689c1.003-1.174,2.303-1.533,3.683-1.455
		c8.143,0.461,16.261,0.143,24.32,2.644c8.391,2.603,16.19,6.014,23.717,10.514c5.729,3.425,11.943,6.187,18.59,7.575
		c2.485,0.521,4.246,1.974,5.886,3.725c1.104,1.177,2.182,2.33,3.566,3.256c2.957,1.976,5.858,3.518,9.643,2.572
		c1.327-0.332,3.002-0.514,4.271,0.666C219.892,129.348,215.771,129.45,211.608,129.31z"/>
	<path fill-rule="evenodd" clip-rule="evenodd" fill="#B6D8FD" d="M31.628,130.839c1.483-0.071,2.675-1.392,4.271,1.036
		c1.524,2.32,3.969-0.769,4.94-1.961c1.3-1.598,5.705-1.617,3.552-5.318c-1.014-1.743-3.443-2.662-2.982-5.266
		c0.526-2.971,2.835-4.674,4.873-6.419c4.625-3.961,9.789-6.64,16.21-6.121c2.704,0.218,5.358-1.115,8.131-0.698
		c-2.912,0.942-5.78,2.065-8.745,2.792c-6.658,1.63-10.651,6.993-15.617,10.965c-1.487,1.188-1.23,2.919,0.656,3.921
		c0.759,0.403,1.629,0.589,2.413,0.953c1.147,0.532,2.317,1.206,2.391,2.604c0.076,1.443-1.337,1.789-2.305,2.044
		c-2.596,0.682-4.679,1.994-6.533,3.927c-1.382,1.441-3.379,1.383-5.268,1.297c-0.491,0.237-0.981,0.475-1.472,0.711
		C36.006,132.434,32.426,133.043,31.628,130.839z"/>
	<path fill-rule="evenodd" clip-rule="evenodd" fill="#C4E0FD" d="M50.377,106.091c-4.778,1.1-8.389,3.896-11.692,7.436
		c-2.031,2.177-2.211,4.012-0.489,6.173c1.406,1.763,2.115,3.717,1.54,5.883c-0.863,3.252-3.348,4.171-6.354,3.618
		c-1.583-0.291-3.124-0.717-4.749-0.614c-1.454-1.551-4.05-1.95-4.525-4.488c2.022,1.505,4.271,2.469,6.743,2.998
		c4.057,0.867,6.758-1.848,5.683-5.862c-0.352-1.312-0.998-2.541-1.464-3.825c-0.776-2.139-0.679-4.018,1.111-5.787
		C40.146,107.702,44.504,105.011,50.377,106.091z"/>
	<path fill-rule="evenodd" clip-rule="evenodd" fill="#C2DEFD" d="M223.611,127.09c-2.704,0.173-5.519-0.583-8.054,0.998
		c-0.56,0.351-1.348,0.524-1.714-0.043c-1.943-3.014-6.121-3-8.023-6.237c-1.395-2.372-3.87-3.548-6.661-4.35
		c-7.744-2.226-15.057-5.264-21.962-9.742c-4.811-3.12-10.451-5.248-16.157-7.052c-9.016-2.849-18.129-3.464-27.406-3.605
		c-2.063-0.031-3.444,0.532-3.717,2.696c-0.384,3.048-2.293,3.08-4.303,1.95c-4.544-2.555-9.669-2.949-14.553-4.228
		c-1.183-0.31-2.458-0.268-3.691-0.388c5.159-2.119,10.14-3.423,15.572-0.195c4.651,2.765,4.974,2.351,5.425-2.97
		c0.121-1.432,0.071-2.991,2.307-2.03c5.427,2.332,11.302,2.529,16.994,2.774c5.129,0.221,9.643,1.771,14.107,3.802
		c1.982,0.901,4.076,1.164,6.094,1.568c9.672,1.936,17.021,8.301,25.181,13.048c3.42,1.989,6.691,2.948,10.543,2.785
		c5.666-0.241,9.7,2.246,11.958,7.572c0.709,1.672,2.385,2.168,4.065,2.106c1.902-0.07,3.701,0.301,5.501,0.795
		C224.79,126.947,224.229,127.078,223.611,127.09z"/>
	<path fill-rule="evenodd" clip-rule="evenodd" fill="#C4E0FD" d="M75.124,102.341c-3.026,0.313-5.451,2.303-8.612,2.658
		c-3.874,0.435-7.7,1.261-11.636,1.091c4.233-1.242,8.399-2.92,12.721-3.576c3.007-0.456,4.933-2.642,7.792-3.281
		c6.188-1.386,12.449-0.839,18.658-1.271c4.186-0.291,8.387-0.505,12.574-0.87c-4.158,2.536-8.961,2.169-13.498,3
		c-1.774,0.765-3.653,0.426-5.448,0.315C83.326,100.14,79.343,101.957,75.124,102.341z"/>
	<path fill-rule="evenodd" clip-rule="evenodd" fill="#C2DEFD" d="M75.124,102.341c2.855-2.071,6.334-1.597,9.522-2.15
		c2.748-0.477,5.645-0.1,8.476-0.1c-0.183,0.162-0.375,0.478-0.545,0.466C86.656,100.162,81.004,102.376,75.124,102.341z"/>
</g>
</svg>
