<?xml version="1.0" encoding="utf-8"?>
<!-- Generator: Adobe Illustrator 16.0.0, SVG Export Plug-In . SVG Version: 6.00 Build 0)  -->
<!DOCTYPE svg PUBLIC "-//W3C//DTD SVG 1.1//EN" "http://www.w3.org/Graphics/SVG/1.1/DTD/svg11.dtd">
<svg version="1.1" id="Layer_1" xmlns="http://www.w3.org/2000/svg" xmlns:xlink="http://www.w3.org/1999/xlink" x="0px" y="0px"
	 width="24px" height="24px" viewBox="0 0 24 24" enable-background="new 0 0 24 24" xml:space="preserve">
<circle fill="#327EF9" cx="12" cy="12" r="11.875"/>
<path fill="none" d="M4.223,4.223h15.555v15.555H4.223V4.223z"/>
<path fill="#FFFFFF" d="M12,5.52c-2.508,0-4.537,2.029-4.537,4.537C7.463,13.458,12,18.48,12,18.48s4.537-5.022,4.537-8.425
	C16.537,7.547,14.51,5.52,12,5.52z M8.759,10.056c0-1.788,1.453-3.241,3.241-3.241s3.24,1.453,3.24,3.241
	c0,1.867-1.865,4.659-3.24,6.403C10.652,14.728,8.759,11.902,8.759,10.056z"/>
<circle fill="#FFFFFF" cx="12" cy="10.056" r="1.621"/>
</svg>
