<?xml version="1.0" encoding="utf-8"?>
<!-- Generator: Adobe Illustrator 16.0.0, SVG Export Plug-In . SVG Version: 6.00 Build 0)  -->
<!DOCTYPE svg PUBLIC "-//W3C//DTD SVG 1.1//EN" "http://www.w3.org/Graphics/SVG/1.1/DTD/svg11.dtd">
<svg version="1.1" id="Layer_1" xmlns="http://www.w3.org/2000/svg" xmlns:xlink="http://www.w3.org/1999/xlink" x="0px" y="0px"
	 width="210.877px" height="181.816px" viewBox="0 0 210.877 181.816" enable-background="new 0 0 210.877 181.816"
	 xml:space="preserve">
<g id="Rectangle_1_copy_2_xA0_Image_1_">
	<g>
		<path fill="#4A4B50" d="M9.004,49.261c3.451-14.277,15.868-24.708,30.112-25.239c15.146-0.564,28.337,8.639,32.859,22.921
			c0.19,0.601,0.171,1.328,0.978,1.815c0-7.638,0.079-15.072-0.053-22.502c-0.035-1.971,0.603-2.383,2.402-2.3
			c3.031,0.14,6.073,0.038,9.11,0.038c4.241,0,4.239,0,4.433,4.293c0.004,0.103,0.177,0.199,0.319,0.348
			c10.059-5.595,20.453-6.418,30.938-1.413c10.508,5.016,16.41,13.68,18.432,25.125c0.748-0.441,0.583-0.976,0.662-1.404
			c4.367-23.977,32.318-34.991,51.746-20.398c6.107,4.587,9.932,10.708,12.132,17.932c0.372,1.524-0.741,1.646-1.757,1.864
			c-3.586,0.781-7.192,1.485-10.75,2.384c-1.76,0.443-2.397-0.076-2.963-1.775c-2.211-6.64-8.439-11.244-15.308-11.569
			c-8.997-0.425-16.585,5.793-18.075,14.813c-1.369,8.289,4.239,16.867,12.502,19.115c8.565,2.332,17.524-2.09,20.668-10.427
			c0.721-1.907,1.52-2.129,3.289-1.684c3.401,0.856,6.855,1.521,10.307,2.169c1.584,0.297,2.265,0.631,1.678,2.587
			c-4.262,14.206-17.432,23.688-32.607,23.302c-14.263-0.363-27.082-10.852-30.404-24.874c-0.277-1.179-0.526-2.364-0.881-3.955
			c-5.363,18.334-14.808,27.769-29.892,28.646c-17.715,1.03-28.967-8.024-34.885-24.908c-0.047,0.771-0.079,1.051-0.079,1.33
			c-0.003,7.114-0.048,14.231,0.033,21.347c0.018,1.555-0.384,2.053-1.974,1.991c-3.273-0.124-6.555-0.038-9.833-0.038
			c-3.873,0-3.871,0-4.134-3.883c-0.006-0.092-0.21-0.167-0.337-0.262c-0.204,0.096-0.421,0.186-0.627,0.295
			C37.013,95.627,14.496,85.611,8.884,63.546 M23.519,56.457c-0.718,8.163,6.892,17.518,17.323,17.462
			c9.476-0.052,17.202-7.771,17.234-17.245c0.036-10.491-9.198-17.135-16.743-17.442C31.086,38.813,22.77,47.982,23.519,56.457z
			 M123.347,56.636c-0.002-9.495-7.731-17.252-17.218-17.276c-9.496-0.024-17.313,7.713-17.333,17.16
			c-0.021,9.631,7.741,17.418,17.337,17.396C115.617,73.887,123.349,66.127,123.347,56.636z"/>
		<path fill="#FEFEFE" d="M8.159,51.355c0-15.086,0.028-30.172-0.042-45.258C8.109,4.553,8.524,4.281,9.974,4.285
			C30.967,4.336,51.96,4.32,72.954,4.32c0,4.709,0.048,9.42-0.031,14.128c-0.022,1.351,0.348,1.771,1.725,1.743
			c4.149-0.088,8.302-0.088,12.451,0c1.377,0.029,1.748-0.392,1.725-1.743c-0.079-4.708-0.031-9.419-0.031-14.128
			c37.597,0,75.194,0.014,112.791-0.046c1.644-0.003,1.978,0.321,1.968,1.966c-0.082,14.078-0.048,28.157-0.048,42.236
			c-0.144-0.002-0.286-0.002-0.429-0.002c-2.2-7.226-6.023-13.346-12.131-17.934c-19.428-14.593-47.379-3.576-51.748,20.396
			c-0.078,0.434,0.087,0.963-0.661,1.404c-2.022-11.443-7.925-20.104-18.433-25.123c-10.484-5.005-20.879-4.182-30.938,1.413
			c-0.142-0.149-0.315-0.245-0.319-0.348c-0.194-4.293-0.192-4.293-4.433-4.293c-3.037,0-6.08,0.102-9.11-0.038
			c-1.799-0.083-2.437,0.329-2.402,2.3c0.132,7.43,0.053,14.865,0.053,22.502c-0.806-0.489-0.787-1.218-0.978-1.817
			c-4.521-14.279-17.713-23.483-32.859-22.918c-14.244,0.534-26.66,10.964-30.112,25.242"/>
		<path fill="#FDFDFD" d="M8.884,63.546c5.611,22.065,28.128,32.081,48.161,21.397c0.206-0.11,0.423-0.2,0.627-0.295
			c0.127,0.094,0.331,0.17,0.337,0.261c0.263,3.883,0.261,3.883,4.134,3.883c3.278,0,6.559-0.086,9.833,0.038
			c1.589,0.061,1.991-0.438,1.974-1.991c-0.081-7.114-0.036-14.231-0.033-21.347c0-0.279,0.032-0.559,0.079-1.33
			c5.918,16.884,17.17,25.939,34.885,24.908c15.084-0.879,24.527-10.313,29.892-28.646c0.354,1.59,0.604,2.776,0.881,3.955
			c3.322,14.023,16.143,24.51,30.404,24.874c15.178,0.39,28.346-9.096,32.607-23.302c0.586-1.956-0.094-2.29-1.678-2.587
			c-3.45-0.646-6.904-1.313-10.307-2.169c-1.771-0.445-2.568-0.229-3.289,1.684c-3.144,8.337-12.103,12.757-20.668,10.426
			c-8.263-2.248-13.871-10.826-12.502-19.115c1.49-9.021,9.078-15.236,18.075-14.813c6.866,0.325,13.097,4.929,15.308,11.568
			c0.564,1.701,1.203,2.223,2.963,1.777c3.559-0.896,7.164-1.604,10.75-2.385c1.016-0.222,2.129-0.34,1.757-1.863
			c0.143,0,0.286,0,0.429,0.002c0,13.276-0.018,26.559,0.031,39.836c0.004,1.199-0.271,1.472-1.471,1.472
			c-64.155-0.034-128.312-0.034-192.464,0c-1.2,0-1.48-0.271-1.472-1.472"/>
		<path fill="#4A4B50" d="M88.792,4.32c0,4.709-0.047,9.42,0.031,14.128c0.022,1.351-0.348,1.771-1.725,1.743
			c-4.149-0.088-8.302-0.088-12.451,0c-1.377,0.029-1.748-0.392-1.725-1.743c0.079-4.708,0.031-9.419,0.031-14.128
			C78.233,4.32,83.513,4.32,88.792,4.32z"/>
		<path fill="#FEFEFE" d="M23.519,56.457c-0.75-8.475,7.567-17.644,17.814-17.226c7.545,0.307,16.779,6.952,16.743,17.442
			c-0.032,9.476-7.758,17.193-17.234,17.245C30.411,73.975,22.801,64.62,23.519,56.457z"/>
		<path fill="#FEFEFE" d="M123.347,56.636c0.002,9.491-7.729,17.251-17.215,17.276c-9.596,0.023-17.358-7.764-17.337-17.395
			c0.021-9.444,7.837-17.185,17.333-17.161C115.614,39.384,123.345,47.141,123.347,56.636z"/>
	</g>
</g>
<g id="Rounded_Rectangle_1_xA0_Image_1_" display="none">
	
		<image display="inline" overflow="visible" enable-background="new    " width="113" height="42" id="Rounded_Rectangle_1_xA0_Image" xlink:href="DF42AB4A.png"  transform="matrix(0.4715 0 0 0.4686 111.8291 47.5166)">
	</image>
</g>
<g>
	
		<image overflow="visible" opacity="0.2" enable-background="new    " width="56" height="23" xlink:href="DF42AB44.png"  transform="matrix(1 0 0 1 110.9385 45.8164)">
	</image>
	<g>
		
			<linearGradient id="SVGID_1_" gradientUnits="userSpaceOnUse" x1="217.2891" y1="-31.6377" x2="265.8984" y2="-31.6377" gradientTransform="matrix(1 0 0 -1 -103.46 24.9727)">
			<stop  offset="0" style="stop-color:#CCD13E"/>
			<stop  offset="1" style="stop-color:#BEC335"/>
		</linearGradient>
		<path fill="url(#SVGID_1_)" d="M162.438,56.609c0,4.396-3.563,7.961-7.961,7.961h-32.688c-4.396,0-7.96-3.563-7.96-7.961l0,0
			c0-4.396,3.563-7.959,7.96-7.959h32.688C158.875,48.65,162.438,52.214,162.438,56.609L162.438,56.609z"/>
	</g>
</g>
<text transform="matrix(1 0 0 1 24.4868 113.2227)"><tspan x="0" y="0" fill="#4A4B50" font-family="'GothicA1-ExtraBold'" font-size="14.4135">Artificial-Intellegence</tspan><tspan x="0" y="20.591" fill="#4A4B50" font-family="'GothicA1-ExtraBold'" font-size="14.4135">BlockChain</tspan><tspan x="0" y="41.182" fill="#4A4B50" font-family="'GothicA1-ExtraBold'" font-size="14.4135">Convergence</tspan></text>
</svg>
