<?xml version="1.0" encoding="utf-8"?>
<!-- Generator: Adobe Illustrator 16.0.0, SVG Export Plug-In . SVG Version: 6.00 Build 0)  -->
<!DOCTYPE svg PUBLIC "-//W3C//DTD SVG 1.1//EN" "http://www.w3.org/Graphics/SVG/1.1/DTD/svg11.dtd">
<svg version="1.1" id="Layer_1" xmlns="http://www.w3.org/2000/svg" xmlns:xlink="http://www.w3.org/1999/xlink" x="0px" y="0px"
	 width="300.804px" height="300px" viewBox="0 0 300.804 300" enable-background="new 0 0 300.804 300" xml:space="preserve">
<g>
	<path fill-rule="evenodd" clip-rule="evenodd" fill="#DDDDDD" d="M0,178.935c4.837-6.921,9.707-7.613,15.819-4.645
		c0.973,0.474,1.934,1.065,2.229,1.914c1.438,4.13,4.519,4.698,8.281,4.286c1.755-0.193,3.567-0.193,5.32,0.011
		c1.903,0.222,3.175-0.646,4.166-1.989c4.602-6.248,9.218-12.489,13.663-18.848c1.379-1.973,2.729-2.919,5.314-2.889
		c13.954,0.165,27.911,0,41.866,0.141c2.995,0.03,4.094-0.799,3.91-3.869c-0.241-4.047-0.152-8.121-0.023-12.177
		c0.074-2.333-0.818-3.107-3.115-3.088c-9.895,0.083-19.792,0.078-29.688-0.003c-1.792-0.014-2.579,0.678-3.371,2.228
		c-2.247,4.39-7.374,6.558-11.995,5.359c-4.179-1.086-7.49-5.67-7.451-10.32c0.04-4.681,3.416-8.891,8.065-10.056
		c4.399-1.102,9.137,0.931,11.262,5.201c0.95,1.91,2.112,2.361,4.094,2.341c9.515-0.098,19.032-0.138,28.545,0.013
		c2.862,0.045,3.833-0.894,3.666-3.715c-0.202-3.415-0.212-6.859,0.002-10.271c0.184-2.918-0.978-3.656-3.744-3.636
		c-15.097,0.111-30.195-0.009-45.292,0.117c-2.378,0.019-3.938-0.742-5.548-2.383c-7.908-8.057-15.953-15.981-23.899-24.002
		c-1.136-1.146-1.982-1.625-3.728-0.914c-5.102,2.079-10.933-0.758-13.049-5.758c-2.159-5.099,0.858-11.427,5.277-13.402
		c5.173-2.312,11.556,0.101,13.973,4.994c1.033,2.089,0.95,4.384,0.424,6.227c-0.785,2.75,0.569,3.967,2.118,5.595
		c6.088,6.399,12.75,12.218,18.486,18.997c3.107,3.672,7.124,5.704,12.709,5.445c13.039-0.604,26.126-0.246,39.194-0.137
		c2.032,0.016,3.099-0.486,3.848-2.429c1.127-2.922,3.313-4.775,6.543-5.264c1.802-0.273,2.653-1.182,2.595-3.266
		c-0.167-5.958-0.144-11.926-0.005-17.886c0.041-1.749-0.643-2.875-1.842-3.857c-4.709-3.854-9.458-7.656-14.145-11.534
		c-1.537-1.272-3.206-1.629-5.154-1.539c-2.785,0.129-5.586,0.142-8.371,0.003c-3.02-0.151-5.272,0.101-6.715,3.598
		c-1.376,3.333-7.61,5.167-11.299,3.914c-4.654-1.58-7.652-5.577-7.402-10.369c0.262-5.036,2.36-7.963,7.576-9.602
		c4.199-1.318,8.612,0.049,10.842,3.85c1.613,2.748,3.613,3.887,6.701,3.329c0.737-0.133,1.547,0.114,2.275-0.04
		c9.531-2.007,16.473,2.676,22.918,8.75c1.814,1.709,3.552,3.666,5.696,4.823c3.819,2.062,4.448,5.103,4.266,9.025
		c-0.266,5.697,0.031,11.418-0.118,17.123c-0.058,2.213,0.326,3.227,2.84,2.992c3.25-0.303,7.566,1.001,9.52-0.646
		c2.057-1.731,0.583-6.179,0.605-9.434c0.076-11.164-0.007-22.33,0.063-33.494c0.012-2.063-0.54-3.321-2.418-4.535
		c-6.937-4.479-13.041-10.141-20.098-14.475c-1.158-0.711-1.147-1.797-1.133-2.958c0.036-2.918-0.059-5.839,0.029-8.754
		c0.115-3.773,0.033-6.74-4.214-9.176c-5.477-3.142-4-12.787,1.852-16.329c0.796-0.482,1.89-0.515,2.345-1.522
		c2.03,0,4.061,0,6.091,0c2.654,1.91,5.797,3.395,6.817,6.857c1.502,5.096-0.041,9.593-4.403,12.187
		c-3.657,2.176-2.467,5.012-2.573,7.845c-0.009,0.244,0.194,0.521,0.134,0.737c-2.216,8.009,4.29,10.593,8.959,14.196
		c3.983,3.075,8.178,5.878,12.315,8.748c1.59,1.103,1.62,2.623,1.615,4.32c-0.039,14.336,0.081,28.675-0.106,43.01
		c-0.039,2.98,0.855,3.579,3.584,3.432c4.301-0.234,8.626-0.124,12.938-0.034c1.782,0.038,2.685-0.175,2.657-2.394
		c-0.132-10.402-0.112-20.808-0.001-31.21c0.017-1.561-0.626-2.317-1.797-2.778c-7.02-2.765-7.956-12.449-2.053-17.399
		c2.859-2.398,9.708-2.649,12.549-0.289c4.12,3.425,5.721,9.515,3.205,13.289c-0.782,1.173-1.081,3.037-2.723,3.394
		c-4.063,0.88-4.009,3.755-3.958,7.021c0.142,9.132,0.12,18.271-0.001,27.404c-0.03,2.219,0.342,3.165,2.846,2.997
		c3.663-0.245,7.366-0.244,11.03-0.005c2.854,0.187,3.81-0.515,3.771-3.621c-0.187-15.096-0.037-30.196-0.134-45.293
		c-0.015-2.312,0.585-3.94,2.274-5.589c8.075-7.89,15.984-15.951,24.004-23.898c1.248-1.237,1.738-2.05,0.862-4.01
		c-1.863-4.171,0.598-10.289,4.574-12.724c2.875-1.761,9.481-1.074,11.933,1.241c3.828,3.616,4.814,9.005,2.41,13.179
		c-2.35,4.082-7.277,6.348-11.644,4.903c-1.921-0.636-2.967-0.204-4.233,1.075c-7.765,7.84-15.55,15.659-23.42,23.392
		c-1.132,1.112-1.404,2.199-1.401,3.651c0.034,14.971,0.096,29.943-0.05,44.913c-0.025,2.594,0.98,2.743,3.068,2.793
		c2.713,0.066,5.41-0.502,8.175,0.547c5.106,1.94,7.848,5.101,7.806,10.375c-0.017,2.097,0.439,2.838,2.671,2.768
		c5.324-0.168,10.66-0.161,15.984-0.011c2.821,0.08,4.75-0.461,6.442-3.179c2.47-3.967,5.402-7.795,8.782-11
		c2.718-2.576,2.854-5.328,2.735-8.493c-0.057-1.52-0.126-3.056,0.013-4.565c0.364-3.929-0.043-7.074-4.414-9.03
		c-3.148-1.408-4.26-8.3-2.69-11.871c1.846-4.194,6.539-6.899,10.552-6.083c5.839,1.188,8.628,3.766,9.464,8.749
		c0.653,3.893-1.687,8.17-5.992,10.644c-1.209,0.695-1.758,1.407-1.656,2.87c0.161,2.273-0.301,4.627,0.104,6.837
		c1.5,8.181-2.437,14.015-7.724,19.494c-2.665,2.761-5.268,5.703-7.257,8.956c-1.354,2.216-2.789,2.791-5.115,2.754
		c-6.343-0.098-12.689,0.032-19.031-0.073c-1.955-0.032-2.845,0.201-2.883,2.567c-0.167,10.418-0.259,10.416,10.251,10.416
		c9.134,0,18.308-0.499,27.392,0.178c5.949,0.442,9.438-1.848,12.461-6.396c3.535-5.323,7.363-10.453,11.082-15.656
		c0.94-1.315,2.167-1.833,3.873-1.775c4.183,0.141,8.375-0.012,12.559,0.074c1.692,0.034,2.627-0.423,3.459-2.089
		c2.168-4.336,6.777-6.509,11.148-5.511c3.902,0.89,8.144,5.294,8.375,9.34c0.28,4.89-2.188,8.899-6.816,10.734
		c-4.65,1.842-10.318-0.337-13.032-5.174c-0.807-1.437-1.627-2.033-3.376-2.056c-11.997-0.158-11.979-0.198-19.364,10.353
		c-2.541,3.63-5.465,7.023-7.682,10.834c-1.358,2.331-2.988,2.508-5.204,2.5c-13.828-0.051-27.661,0.083-41.486-0.11
		c-3.098-0.042-3.792,0.905-3.629,3.768c0.239,4.172,0.152,8.374,0.022,12.555c-0.062,1.981,0.236,2.889,2.589,2.856
		c9.767-0.142,19.538-0.087,29.307-0.033c1.686,0.012,2.714-0.347,3.442-2.096c2.654-6.374,13.256-8.52,18.476-0.877
		c1.71,2.504,1.939,9.73-1.889,13.138c-3.254,2.897-9.037,3.97-12.935,0.981c-0.774-0.593-2.103-1.055-2.255-1.771
		c-1.088-5.147-5.024-4.058-8.461-4.066c-8.5-0.018-17.001,0.059-25.501-0.05c-2.062-0.026-2.898,0.401-2.784,2.658
		c0.192,3.798,0.239,7.622-0.009,11.413c-0.181,2.758,0.493,3.608,3.444,3.569c13.7-0.187,27.426,0.367,41.098-0.284
		c6.286-0.299,9.763,2.732,13.508,6.628c6.524,6.788,13.246,13.386,19.872,20.073c1.283,1.296,2.496,0.806,4.048,0.358
		c4.796-1.376,10.727,0.847,12.324,4.801c1.865,4.611,1.617,9.45-2.283,13.042c-3.591,3.31-9.196,3.354-13.602,0.213
		c-2.695-1.918-4.729-7.001-3.462-10.252c0.881-2.261,0.173-3.446-1.259-4.867c-7.653-7.594-15.286-15.209-22.871-22.869
		c-1.145-1.156-2.298-1.641-3.944-1.634c-14.718,0.064-29.436,0.082-44.154-0.011c-2.161-0.016-2.695,0.592-2.715,2.726
		c-0.09,9.231-3.584,12.552-12.858,12.552c-7.643,0-7.643,0-7.643,7.596c0,1.775,0.225,3.587-0.042,5.321
		c-0.886,5.771,0.504,10.282,5.964,13.305c2.244,1.241,4.042,3.316,5.97,5.091c3.056,2.813,6.396,4.501,10.752,3.77
		c1.974-0.334,4.053-0.123,6.08-0.041c2.993,0.119,5.279-0.011,7.246-3.315c2.752-4.623,7.492-5.111,12.659-2.835
		c4.869,2.143,6.001,6.722,5.399,11.834c-0.402,3.407-5.664,8.032-9.516,7.906c-3.915-0.128-7.702-1.441-9.447-5.408
		c-0.842-1.914-1.954-2.189-3.703-2.131c-2.788,0.093-5.612-0.239-8.367,0.082c-5.018,0.582-9.213-0.705-13.002-4.097
		c-4.161-3.727-8.564-7.182-12.928-10.673c-2.32-1.857-3.398-3.979-3.235-7.104c0.285-5.44-0.023-10.909,0.129-16.36
		c0.062-2.211-0.321-3.229-2.838-2.995c-3.249,0.305-7.565-1-9.521,0.647c-2.057,1.731-0.581,6.178-0.605,9.434
		c-0.079,10.403,0.062,20.81-0.103,31.211c-0.035,2.216,0.793,3.633,2.352,4.774c6.156,4.507,12.359,8.949,18.552,13.406
		c1.945,1.4,3.166,3.027,2.829,5.676c-0.271,2.122-0.018,4.308-0.063,6.465c-0.083,3.887-0.335,7.246,3.969,10.02
		c5.408,3.484,4.623,10.442,0.459,14.922c-0.5,0.535-0.918,1.147-1.374,1.723c-3.809,0-7.615,0-11.422,0
		c-2.037-2.836-5.115-4.902-4.695-9.284c0.404-4.216,1.735-7.326,5.701-9.032c1.494-0.64,2.077-1.563,2.102-3.342
		c0.174-12.27,0.23-12.27-11.167-20.167c-3.127-2.166-6.263-4.32-9.389-6.488c-2.23-1.548-3.26-3.398-3.208-6.396
		c0.227-13.194-0.061-26.397,0.203-39.59c0.07-3.535-1.032-4.219-4.196-3.989c-3.788,0.273-7.619,0.229-11.414,0.009
		c-2.665-0.154-3.704,0.343-3.62,3.396c0.249,9.004,0.153,18.019,0.043,27.027c-0.028,2.257,0.526,3.626,2.712,4.665
		c5.204,2.475,5.452,6.443,4.833,11.385c-0.552,4.405-5.237,7.615-10.09,7.644c-4.769,0.028-8.899-3.155-10.17-7.901
		c-0.906-3.384,0.793-9.987,4.987-11.367c1.954-0.643,2.523-1.919,2.496-3.989c-0.12-9.39-0.125-18.78,0-28.17
		c0.03-2.214-0.667-2.766-2.766-2.679c-3.927,0.159-7.877,0.224-11.796-0.017c-2.604-0.163-3.073,0.783-3.056,3.168
		c0.105,14.72-0.006,29.44,0.111,44.16c0.02,2.484-0.742,4.178-2.495,5.89c-7.808,7.622-15.468,15.393-23.213,23.079
		c-1.425,1.413-2.068,2.581-1.276,4.861c1.518,4.371-0.753,9.84-4.264,11.799c-4.348,2.431-9.74,1.919-13.061-1.234
		c-3.313-3.148-3.934-8.991-1.421-13.357c2-3.477,7.396-5.629,11.883-4.153c1.736,0.57,2.479,0.185,3.508-0.849
		c7.879-7.908,15.753-15.82,23.698-23.663c1.015-1.001,1.276-1.999,1.273-3.325c-0.032-14.594-0.056-29.188,0.022-43.78
		c0.01-1.903-0.597-2.88-2.31-3.72c-3.615-1.771-5.796-4.52-5.392-8.912c0.243-2.644-0.115-5.339,0.092-7.986
		c0.187-2.402-1.105-3.18-3.043-3.203c-5.892-0.08-11.787-0.071-17.679,0.002c-1.345,0.018-2.256,0.758-3.198,1.975
		c-3.721,4.813-7.741,9.399-11.65,14.067c-0.081,0.098-0.176,0.183-0.253,0.282c-0.616,0.796-1.314,17.646-0.602,18.315
		c0.593,0.561,1.544,0.721,2.272,1.163c4.24,2.583,5.877,7.29,4.404,12.563c-1.224,4.382-5.104,6.595-11.251,6.424
		c-3.933-0.111-7.522-3.468-8.541-7.984c-1.144-5.069,0.442-8.823,5.184-11.202c2.053-1.028,2.619-2.328,2.464-4.425
		c-0.148-2.019,0.285-4.119-0.088-6.076c-1.49-7.843,2.155-13.592,7.152-18.965c2.274-2.446,4.134-5.273,6.359-7.77
		c1.982-2.227,3.908-4.18,7.607-3.862c5.794,0.496,11.665,0.045,17.5,0.171c2.428,0.055,3.323-0.696,3.373-3.235
		c0.192-9.751,0.275-9.748-9.386-9.748c-11.167,0-22.336,0.086-33.501-0.074c-2.237-0.032-3.615,0.863-4.751,2.406
		c-4.744,6.448-9.484,12.899-14.07,19.46c-0.98,1.402-1.929,1.923-3.565,1.845c-2.532-0.124-5.077,0.03-7.612-0.048
		c-4.038-0.126-7.451-0.178-10.349,4.071c-4.324,6.341-13.9,3.809-16.507-2.235C0.625,187.15,0.635,186.63,0,186.55
		C0,184.011,0,181.472,0,178.935z"/>
	<path fill-rule="evenodd" clip-rule="evenodd" fill="#F8F8F8" d="M60.197,135.083c-0.198,3.022-1.695,4.819-4.81,5.005
		c-2.19,0.132-5.176-2.836-5.127-5.004c0.051-2.192,3.017-5.01,5.343-4.85C58.516,130.435,59.925,132.243,60.197,135.083z"/>
	<path fill-rule="evenodd" clip-rule="evenodd" fill="#F8F8F8" d="M217.772,14.943c-0.053,2.719-2.798,5.622-4.969,5.611
		c-2.168-0.009-4.902-2.931-4.933-5.271c-0.035-2.687,2.246-4.747,5.15-4.619C215.975,10.795,217.387,12.532,217.772,14.943z"/>
	<path fill-rule="evenodd" clip-rule="evenodd" fill="#F8F8F8" d="M19.799,78.616c-0.14,2.263-1.573,4.056-4.436,4.343
		c-2.457,0.247-5.592-2.811-5.455-5.086c0.133-2.201,3.125-4.834,5.425-4.774C17.866,73.165,19.789,75.29,19.799,78.616z"/>
	<path fill-rule="evenodd" clip-rule="evenodd" fill="#F8F8F8" d="M77.231,280.98c2.434,0.348,4.256,1.839,4.229,5.003
		c-0.025,2.966-1.947,4.425-4.543,4.817c-2.251,0.341-5.283-2.621-5.337-4.813C71.526,283.824,74.506,280.9,77.231,280.98z"/>
	<path fill-rule="evenodd" clip-rule="evenodd" fill="#F8F8F8" d="M112.705,10.518c0.112,3.333-2.07,4.302-4.487,4.651
		c-2.277,0.329-5.487-2.704-5.39-4.735c0.121-2.549,3.103-5.555,5.458-5.025C110.911,5.998,112.996,7.51,112.705,10.518z"/>
	<path fill-rule="evenodd" clip-rule="evenodd" fill="#F8F8F8" d="M156.352,51.02c2.35,0.273,4.134,1.705,4.277,4.618
		c0.115,2.346-2.885,5.414-4.898,5.229c-2.596-0.238-5.318-3.153-4.926-5.579C151.25,52.531,152.934,50.94,156.352,51.02z"/>
	<path fill-rule="evenodd" clip-rule="evenodd" fill="#F8F8F8" d="M60.875,229.957c-1.921-0.6-4.513-0.916-4.545-4.334
		c-0.029-3.056,2.003-5.573,4.639-5.571c2.372,0.005,5.201,2.72,5.179,4.972C66.127,227.17,63.458,229.913,60.875,229.957z"/>
	<path fill-rule="evenodd" clip-rule="evenodd" fill="#F8F8F8" d="M133.171,240.547c3.387,0.193,5.279,1.684,5.363,4.755
		c0.079,2.873-1.875,4.562-4.395,5.126c-2.309,0.514-5.831-2.77-5.374-4.963C129.278,243.012,130.704,240.996,133.171,240.547z"/>
	<path fill-rule="evenodd" clip-rule="evenodd" fill="#F8F8F8" d="M234.518,70.938c-0.045-2.784,1.986-4.753,4.951-4.682
		c3.05,0.073,4.211,2.41,4.854,4.765c0.547,2-2.541,4.908-4.928,5.085C237.421,76.252,234.556,73.215,234.518,70.938z"/>
	<path fill-rule="evenodd" clip-rule="evenodd" fill="#F8F8F8" d="M290.005,118.028c-2.484-0.188-4.289-1.676-4.458-4.786
		c-0.143-2.637,2.196-5.153,4.657-5.118c2.376,0.033,5.147,2.739,5.109,4.99C295.277,115.307,292.667,117.988,290.005,118.028z"/>
	<path fill-rule="evenodd" clip-rule="evenodd" fill="#F8F8F8" d="M249.754,161.994c-0.174,1.997-2.383,3.271-4.789,3.904
		c-2.022,0.534-5.555-2.951-5.021-4.98c0.625-2.376,1.775-4.757,4.877-4.815C247.739,156.051,249.722,158.056,249.754,161.994z"/>
	<path fill-rule="evenodd" clip-rule="evenodd" fill="#F8F8F8" d="M5.331,182.73c0.006-2.746,2.142-4.725,5.087-4.538
		c2.984,0.188,4.182,2.495,4.719,4.892c0.458,2.049-2.73,4.883-5.069,4.952C8.082,188.097,5.326,185.009,5.331,182.73z"/>
	<path fill-rule="evenodd" clip-rule="evenodd" fill="#F8F8F8" d="M284.266,213.205c3.797-0.032,5.786,1.903,5.835,4.829
		c0.037,2.204-2.991,5.393-5.085,4.995c-2.632-0.499-4.807-2.311-4.652-4.974C280.507,215.614,282.22,213.522,284.266,213.205z"/>
	<path fill-rule="evenodd" clip-rule="evenodd" fill="#F8F8F8" d="M65.921,66.256c-3.029,0.073-4.39-1.97-4.934-4.438
		c-0.478-2.173,2.457-5.306,4.673-5.461c2.124-0.149,5.013,2.695,5.15,5.07C70.924,63.375,68.057,66.205,65.921,66.256z"/>
	<path fill-rule="evenodd" clip-rule="evenodd" fill="#F8F8F8" d="M224.003,244.416c-2.818,0.059-5.545-2.335-5.438-4.77
		c0.077-1.771,3.48-5.263,5.082-4.824c2.365,0.646,4.787,1.536,4.796,4.774C228.453,242.387,226.708,244.359,224.003,244.416z"/>
	<path fill-rule="evenodd" clip-rule="evenodd" fill="#F8F8F8" d="M181.751,286.293c3.035-0.503,4.349,1.683,4.703,4.258
		c0.354,2.563-2.446,4.833-5.243,4.895c-3.31,0.075-4.219-2.182-4.515-4.766C176.401,288.102,178.502,286.321,181.751,286.293z"/>
</g>
</svg>
