<?xml version="1.0" encoding="utf-8"?>
<!-- Generator: Adobe Illustrator 16.0.0, SVG Export Plug-In . SVG Version: 6.00 Build 0)  -->
<!DOCTYPE svg PUBLIC "-//W3C//DTD SVG 1.1//EN" "http://www.w3.org/Graphics/SVG/1.1/DTD/svg11.dtd">
<svg version="1.1" id="Layer_1" xmlns="http://www.w3.org/2000/svg" xmlns:xlink="http://www.w3.org/1999/xlink" x="0px" y="0px"
	 width="500px" height="500px" viewBox="0 0 500 500" enable-background="new 0 0 500 500" xml:space="preserve">
<g>
	<path fill-rule="evenodd" clip-rule="evenodd" d="M480.244,388.146c0,50.863-41.234,92.098-92.098,92.098H111.854
		c-50.865,0-92.098-41.234-92.098-92.098V111.854c0-50.865,41.232-92.098,92.098-92.098h276.292
		c50.863,0,92.098,41.232,92.098,92.098V388.146z"/>
	<g>
		<path fill-rule="evenodd" clip-rule="evenodd" fill="#FFFFFF" d="M242.672,250.627c0-33.374,0-66.746,0-100.54
			c-4.68-1.195-8.844-2.267-13.552-3.47c0-16.021,0-31.681,0-48.514c16.536,0,32.457,0,49.384,0c0,15.943,0,31.529,0,48.121
			c-3.937,1.171-8.398,2.508-13.312,3.97c0,14.017,0,27.746,0,42.634c32.902,0,65.656,0,99.415,0c0-14.035,0-28.088,0-42.971
			c-3.994-0.914-8.143-1.864-13.034-2.985c0-16.191,0-32.195,0-49.071c16.322,0,31.903,0,48.687,0c0,16.002,0,32.008,0,48.939
			c-3.5,0.84-7.658,1.839-12.729,3.057c0,36.061,0,72.352,0,109.384c4.16,0.842,8.337,1.681,13.17,2.657c0,15.949,0,31.563,0,48.41
			c-15.952,0-31.892,0-48.9,0c0-15.682,0-31.225,0-47.809c3.933-1.101,8.406-2.35,13.271-3.712c0-14.087,0-27.796,0-42.657
			c-33.056,0-65.776,0-100.414,0c0,11.185-0.566,22.403,0.334,33.5c0.28,3.455,3.981,7.257,7.052,9.751
			c14.571,11.86,18.554,28.614,9.776,43.29c-8.228,13.746-25.184,19.422-39.889,13.347c-15.603-6.448-22.569-21.205-19.054-38.689
			c0.865-4.317,1.043-10.206-1.21-13.479c-24.34-35.353-49.219-70.336-74.021-105.372c-0.723-1.025-2.219-1.503-4.566-3.021
			c0,34.877,0,68.688,0,103.321c4.296,1.164,8.83,2.394,13.684,3.709c0,15.965,0,31.507,0,48.038c-16.87,0-32.865,0-49.896,0
			c0-16.178,0-31.729,0-48.018c3.838-1.044,8.006-2.181,13.78-3.755c0-33.002,0.209-66.45-0.329-99.894
			c-0.053-3.304-4.198-7.118-7.28-9.694c-13.912-11.629-17.66-27.626-9.406-42.153c7.953-14.004,24.647-20.012,39.525-14.222
			c15.774,6.14,23.291,20.88,19.996,38.247c-0.767,4.034-1.64,9.508,0.344,12.384c25.132,36.487,50.775,72.614,76.291,108.831
			C240.75,251.671,241.712,251.147,242.672,250.627z M132.814,140.416c5.282-8.252,11.07-13.402,10.196-16.877
			c-1.173-4.675-7.485-8.061-11.594-12c-3.687,3.92-10.282,7.828-10.297,11.763C121.1,127.806,126.929,132.333,132.814,140.416z
			 M252.878,269.313c-5.112,7.655-11.084,12.81-10.225,16.257c1.16,4.685,7.56,8.069,11.709,12.009
			c3.617-4.39,9.485-8.488,10.104-13.264C264.925,280.752,258.593,276.311,252.878,269.313z"/>
	</g>
	<text transform="matrix(1.07 0 0 1 99.791 398.2705)" fill="#FFFFFF" font-family="'GothicA1-Bold'" font-size="47.8816">NODEHOME</text>
</g>
</svg>
