<?xml version="1.0" encoding="utf-8"?>
<!-- Generator: Adobe Illustrator 16.0.0, SVG Export Plug-In . SVG Version: 6.00 Build 0)  -->
<!DOCTYPE svg PUBLIC "-//W3C//DTD SVG 1.1//EN" "http://www.w3.org/Graphics/SVG/1.1/DTD/svg11.dtd">
<svg version="1.1" id="Layer_1" xmlns="http://www.w3.org/2000/svg" xmlns:xlink="http://www.w3.org/1999/xlink" x="0px" y="0px"
	 width="24px" height="24px" viewBox="0 0 24 24" enable-background="new 0 0 24 24" xml:space="preserve">
<circle fill="#F9AD32" cx="12" cy="12" r="11.875"/>
<path display="none" fill="none" d="M4.223,4.223h15.554v15.554H4.223V4.223z"/>
<path display="none" fill="#FFFFFF" d="M12,5.52c-2.508,0-4.537,2.029-4.537,4.537C7.463,13.458,12,18.48,12,18.48
	s4.537-5.022,4.537-8.425C16.537,7.547,14.51,5.52,12,5.52z M8.759,10.056c0-1.788,1.453-3.241,3.241-3.241s3.24,1.453,3.24,3.241
	c0,1.867-1.865,4.659-3.24,6.403C10.652,14.729,8.759,11.902,8.759,10.056z"/>
<circle display="none" fill="#FFFFFF" cx="12" cy="10.056" r="1.621"/>
<path fill="#FFFFFF" d="M9.171,8.36c0.032,0.478,0.113,0.944,0.242,1.389l-0.644,0.644C8.548,9.749,8.409,9.068,8.361,8.36H9.171
	 M14.46,14.807c0.456,0.129,0.923,0.21,1.395,0.242v0.8c-0.709-0.049-1.389-0.189-2.038-0.402L14.46,14.807 M9.686,7.287H7.808
	c-0.294,0-0.536,0.242-0.536,0.536c0,5.037,4.082,9.119,9.119,9.119c0.295,0,0.536-0.241,0.536-0.536v-1.873
	c0-0.294-0.241-0.536-0.536-0.536c-0.665,0-1.313-0.107-1.915-0.306c-0.054-0.021-0.112-0.026-0.166-0.026
	c-0.14,0-0.273,0.054-0.381,0.155l-1.18,1.181c-1.519-0.778-2.763-2.017-3.535-3.535l1.18-1.18c0.151-0.15,0.193-0.36,0.134-0.547
	c-0.198-0.601-0.306-1.244-0.306-1.915C10.222,7.529,9.981,7.287,9.686,7.287z"/>
</svg>
