<?xml version="1.0" encoding="utf-8"?>
<!-- Generator: Adobe Illustrator 16.0.0, SVG Export Plug-In . SVG Version: 6.00 Build 0)  -->
<!DOCTYPE svg PUBLIC "-//W3C//DTD SVG 1.1//EN" "http://www.w3.org/Graphics/SVG/1.1/DTD/svg11.dtd">
<svg version="1.1" id="Layer_2_xA0_Image_1_" xmlns="http://www.w3.org/2000/svg" xmlns:xlink="http://www.w3.org/1999/xlink"
	 x="0px" y="0px" width="100px" height="100px" viewBox="0 0 100 100" enable-background="new 0 0 100 100" xml:space="preserve">
<g>
	<path fill="#327EF9" d="M35.029,78.063c-5.5,0-11,0.018-16.5-0.021c-0.608-0.006-1.842,0.617-1.5-0.979
		c7.192-7.822,12.452-17.081,18.923-25.438c0.838-1.082,0.838-2.041,0-3.125c-6.471-8.357-11.731-17.616-18.923-25.438
		c1.888-2.146,4.345-0.773,6.505-0.925c3.815-0.268,7.662-0.075,11.495-0.075c5.958,8.349,11.824,16.765,17.932,25.003
		c1.676,2.259,1.676,3.735,0,5.994C46.854,61.297,40.987,69.713,35.029,78.063z"/>
	<path fill="#327EF9" d="M83.029,49.063c0,0.667,0,1.333,0,2c-7.602,8.309-13.189,18.105-20,27c-6,0-12,0-18,0
		c5.971-8.348,11.85-16.764,17.969-25c1.68-2.259,1.68-3.741,0-6c-6.119-8.237-11.998-16.652-17.969-25c6,0,12,0,18,0
		C69.84,30.958,75.428,40.753,83.029,49.063z"/>
</g>
</svg>
