<?xml version="1.0" encoding="utf-8"?>
<!-- Generator: Adobe Illustrator 16.0.0, SVG Export Plug-In . SVG Version: 6.00 Build 0)  -->
<!DOCTYPE svg PUBLIC "-//W3C//DTD SVG 1.1//EN" "http://www.w3.org/Graphics/SVG/1.1/DTD/svg11.dtd">
<svg version="1.1" id="Layer_1" xmlns="http://www.w3.org/2000/svg" xmlns:xlink="http://www.w3.org/1999/xlink" x="0px" y="0px"
	 width="300px" height="300px" viewBox="0 0 300 300" enable-background="new 0 0 300 300" xml:space="preserve">
<polygon fill="#D5DDEA" stroke="#D5DDEA" stroke-width="5" stroke-linecap="round" stroke-linejoin="round" stroke-miterlimit="10" points="
	207.424,204.17 151.051,236.202 151.051,158.034 211.141,126.893 "/>
<polygon fill="#D5DDEA" stroke="#D5DDEA" stroke-width="5" stroke-linecap="round" stroke-linejoin="round" stroke-miterlimit="10" points="
	84.513,204.17 140.886,236.202 140.886,158.034 80.797,126.893 "/>
<polygon fill="#D5DDEA" stroke="#D5DDEA" stroke-width="5" stroke-linecap="round" stroke-linejoin="round" stroke-miterlimit="10" points="
	145.242,147.955 82.638,115.069 144.854,88.347 207.424,115.881 "/>
<image display="none" overflow="visible" enable-background="new    " width="512" height="512" xlink:href="../../../Downloads/home_house_internet_network_security_sharing_smart_icon_127074.png"  transform="matrix(1 0 0 1 -451 -210)">
</image>
<g>
	
		<line fill="none" stroke="#FFFFFF" stroke-width="20" stroke-linecap="round" stroke-miterlimit="10" x1="145.969" y1="46.382" x2="145.969" y2="114.471"/>
	
		<line fill="none" stroke="#FFFFFF" stroke-width="20" stroke-linecap="round" stroke-miterlimit="10" x1="145.969" y1="46.382" x2="129.714" y2="62.637"/>
	
		<line fill="none" stroke="#FFFFFF" stroke-width="20" stroke-linecap="round" stroke-miterlimit="10" x1="145.969" y1="46.382" x2="162.225" y2="62.637"/>
</g>
<g>
	
		<line fill="none" stroke="#225FA5" stroke-width="8" stroke-linecap="round" stroke-miterlimit="10" x1="145.969" y1="46.382" x2="145.969" y2="114.471"/>
	
		<line fill="none" stroke="#225FA5" stroke-width="8" stroke-linecap="round" stroke-miterlimit="10" x1="145.969" y1="46.382" x2="129.714" y2="62.637"/>
	
		<line fill="none" stroke="#225FA5" stroke-width="8" stroke-linecap="round" stroke-miterlimit="10" x1="145.969" y1="46.382" x2="162.225" y2="62.637"/>
</g>
<g>
	
		<line fill="none" stroke="#FFFFFF" stroke-width="20" stroke-linecap="round" stroke-miterlimit="10" x1="244.667" y1="222.415" x2="186.229" y2="187.471"/>
	
		<line fill="none" stroke="#FFFFFF" stroke-width="20" stroke-linecap="round" stroke-miterlimit="10" x1="244.667" y1="222.415" x2="239.059" y2="200.122"/>
	
		<line fill="none" stroke="#FFFFFF" stroke-width="20" stroke-linecap="round" stroke-miterlimit="10" x1="244.667" y1="222.415" x2="222.373" y2="228.023"/>
</g>
<g>
	
		<line fill="none" stroke="#225FA5" stroke-width="8" stroke-linecap="round" stroke-miterlimit="10" x1="244.667" y1="222.415" x2="186.229" y2="187.471"/>
	
		<line fill="none" stroke="#225FA5" stroke-width="8" stroke-linecap="round" stroke-miterlimit="10" x1="244.667" y1="222.415" x2="239.059" y2="200.122"/>
	
		<line fill="none" stroke="#225FA5" stroke-width="8" stroke-linecap="round" stroke-miterlimit="10" x1="244.667" y1="222.415" x2="222.373" y2="228.023"/>
</g>
<g>
	
		<line fill="none" stroke="#FFFFFF" stroke-width="20" stroke-linecap="round" stroke-miterlimit="10" x1="57.778" y1="222.415" x2="116.216" y2="187.471"/>
	
		<line fill="none" stroke="#FFFFFF" stroke-width="20" stroke-linecap="round" stroke-miterlimit="10" x1="57.778" y1="222.415" x2="63.387" y2="200.122"/>
	
		<line fill="none" stroke="#FFFFFF" stroke-width="20" stroke-linecap="round" stroke-miterlimit="10" x1="57.778" y1="222.415" x2="80.072" y2="228.023"/>
</g>
<g>
	
		<line fill="none" stroke="#225FA5" stroke-width="8" stroke-linecap="round" stroke-miterlimit="10" x1="57.778" y1="222.415" x2="116.216" y2="187.471"/>
	
		<line fill="none" stroke="#225FA5" stroke-width="8" stroke-linecap="round" stroke-miterlimit="10" x1="57.778" y1="222.415" x2="63.387" y2="200.122"/>
	
		<line fill="none" stroke="#225FA5" stroke-width="8" stroke-linecap="round" stroke-miterlimit="10" x1="57.778" y1="222.415" x2="80.072" y2="228.023"/>
</g>
</svg>
