<?xml version="1.0" encoding="utf-8"?>
<!-- Generator: Adobe Illustrator 16.0.0, SVG Export Plug-In . SVG Version: 6.00 Build 0)  -->
<!DOCTYPE svg PUBLIC "-//W3C//DTD SVG 1.1//EN" "http://www.w3.org/Graphics/SVG/1.1/DTD/svg11.dtd">
<svg version="1.1" id="Layer_1" xmlns="http://www.w3.org/2000/svg" xmlns:xlink="http://www.w3.org/1999/xlink" x="0px" y="0px"
	 width="300px" height="300px" viewBox="0 0 300 300" enable-background="new 0 0 300 300" xml:space="preserve">
<g>
	<path fill="#F8F8F8" stroke="#357EBA" stroke-width="10" stroke-miterlimit="10" d="M150,50.798L70.638,80.559v60.413
		c0,50.105,33.83,96.82,79.362,108.231c45.532-11.411,79.361-58.126,79.361-108.231V80.559L150,50.798z"/>
</g>
<rect x="121.208" y="133.917" fill="#D0D8E5" width="58.134" height="48.907"/>
<path fill="#225FA5" d="M174.415,126.077h-4.069v-8.139c0-11.231-9.115-20.347-20.346-20.347c-11.229,0-20.347,9.116-20.347,20.347
	v8.139h-4.069c-4.476,0-8.138,3.662-8.138,8.138v40.693c0,4.476,3.661,8.138,8.138,8.138h48.831c4.476,0,8.139-3.661,8.139-8.138
	v-40.693C182.554,129.738,178.891,126.077,174.415,126.077z M137.792,117.938c0-6.756,5.452-12.208,12.208-12.208
	s12.21,5.452,12.21,12.208v8.139h-24.417L137.792,117.938L137.792,117.938z M174.415,174.91h-48.831v-40.694h48.831V174.91z
	 M150,162.7c4.476,0,8.14-3.665,8.14-8.139c0-4.475-3.664-8.137-8.14-8.137c-4.476,0-8.138,3.664-8.138,8.137
	S145.524,162.7,150,162.7z"/>
<path fill="#D5DDEA" d="M184.471,176.564c0,4.794-4.514,8.682-10.086,8.682h-48.771c-5.57,0-10.085-3.888-10.085-8.682v-43.828
	c0-4.796,4.515-8.683,10.085-8.683h48.771c5.571,0,10.086,3.887,10.086,8.683V176.564z"/>
<g>
	<path fill="#225FA5" d="M153.373,158.83c0,1.711-1.388,3.098-3.097,3.098l0,0c-1.71,0-3.097-1.387-3.097-3.098v-5.213
		c0-1.711,1.387-3.096,3.097-3.096l0,0c1.709,0,3.097,1.387,3.097,3.096V158.83z"/>
	<circle fill="#225FA5" cx="150.275" cy="147.816" r="7.278"/>
</g>
</svg>
