<?xml version="1.0" encoding="utf-8"?>
<!-- Generator: Adobe Illustrator 16.0.0, SVG Export Plug-In . SVG Version: 6.00 Build 0)  -->
<!DOCTYPE svg PUBLIC "-//W3C//DTD SVG 1.1//EN" "http://www.w3.org/Graphics/SVG/1.1/DTD/svg11.dtd">
<svg version="1.1" id="Layer_1" xmlns="http://www.w3.org/2000/svg" xmlns:xlink="http://www.w3.org/1999/xlink" x="0px" y="0px"
	 width="109px" height="108px" viewBox="0 0 109 108" enable-background="new 0 0 109 108" xml:space="preserve">
<path fill="none" stroke="#1E2B58" d="M74.4,53.247c0,13.204-2.275,25.135-5.935,33.746c-1.83,4.306-3.997,7.759-6.377,10.128
	c-2.378,2.366-4.942,3.626-7.588,3.626s-5.21-1.26-7.588-3.626c-2.38-2.369-4.547-5.822-6.377-10.128
	c-3.66-8.611-5.936-20.542-5.936-33.746s2.276-25.135,5.936-33.746c1.83-4.306,3.997-7.759,6.377-10.128
	c2.378-2.366,4.942-3.626,7.588-3.626s5.21,1.26,7.588,3.626c2.38,2.369,4.547,5.822,6.377,10.128
	C72.125,28.112,74.4,40.043,74.4,53.247z"/>
<circle fill="none" stroke="#1E2B58" cx="55.052" cy="53.724" r="8.861"/>
<path fill="none" stroke="#1E2B58" d="M54.5,73.147c-13.204,0-25.135-2.275-33.746-5.935c-4.306-1.831-7.759-3.997-10.128-6.377
	C8.26,58.457,7,55.894,7,53.247c0-2.646,1.26-5.21,3.626-7.588c2.369-2.38,5.822-4.547,10.128-6.377
	c8.611-3.66,20.542-5.936,33.746-5.936s25.135,2.276,33.746,5.936c4.306,1.83,7.759,3.997,10.127,6.377
	c2.367,2.378,3.627,4.942,3.627,7.588c0,2.646-1.26,5.21-3.627,7.589c-2.368,2.38-5.821,4.546-10.127,6.377
	C79.635,70.872,67.704,73.147,54.5,73.147z"/>
<path fill="none" stroke="#1E2B58" d="M68.618,67.291C59.22,76.688,49.117,83.57,40.396,87.108
	c-4.361,1.769-8.353,2.693-11.725,2.693c-3.369,0-6.08-0.918-7.953-2.791c-1.873-1.873-2.792-4.584-2.791-7.953
	c0-3.371,0.924-7.362,2.694-11.725c3.538-8.72,10.418-18.823,19.817-28.221c9.398-9.399,19.501-16.279,28.222-19.817
	c4.361-1.77,8.352-2.694,11.724-2.694c3.369-0.001,6.08,0.917,7.953,2.79s2.792,4.584,2.79,7.953c0,3.372-0.924,7.364-2.693,11.725
	C84.897,47.789,78.017,57.892,68.618,67.291z"/>
<path fill="none" stroke="#1E2B58" d="M40.439,67.291c9.398,9.397,19.501,16.279,28.222,19.817
	c4.361,1.769,8.353,2.693,11.725,2.693c3.368,0,6.08-0.918,7.953-2.791c1.872-1.873,2.792-4.584,2.79-7.953
	c0-3.371-0.924-7.362-2.693-11.725c-3.538-8.72-10.419-18.823-19.817-28.221c-9.398-9.399-19.501-16.279-28.222-19.817
	c-4.361-1.77-8.353-2.694-11.725-2.694c-3.369-0.001-6.08,0.917-7.953,2.79c-1.873,1.873-2.792,4.584-2.791,7.953
	c0.001,3.372,0.925,7.364,2.694,11.725C24.16,47.789,31.041,57.892,40.439,67.291z"/>
<path fill="#7CA2D5" d="M61.322,53.723c0,3.463-2.807,6.271-6.271,6.271c-3.463,0-6.27-2.808-6.27-6.271
	c0-3.463,2.807-6.27,6.27-6.27C58.515,47.453,61.322,50.26,61.322,53.723z"/>
<path fill="#7CA2D5" d="M28.5,69.247c0,1.657-1.343,3-3,3s-3-1.343-3-3s1.343-3,3-3S28.5,67.59,28.5,69.247z"/>
<path fill="#7CA2D5" d="M51.5,23.247c0,1.657-1.343,3-3,3s-3-1.343-3-3s1.343-3,3-3S51.5,21.59,51.5,23.247z"/>
<path fill="#7CA2D5" d="M67.5,94.247c0,1.657-1.343,3-3,3s-3-1.343-3-3s1.343-3,3-3S67.5,92.59,67.5,94.247z"/>
<path fill="#7CA2D5" d="M87.5,47.247c0,1.657-1.344,3-3,3s-3-1.343-3-3s1.344-3,3-3S87.5,45.59,87.5,47.247z"/>
</svg>
