<?xml version="1.0" encoding="utf-8"?>
<!-- Generator: Adobe Illustrator 16.0.0, SVG Export Plug-In . SVG Version: 6.00 Build 0)  -->
<!DOCTYPE svg PUBLIC "-//W3C//DTD SVG 1.1//EN" "http://www.w3.org/Graphics/SVG/1.1/DTD/svg11.dtd">
<svg version="1.1" id="Layer_1" xmlns="http://www.w3.org/2000/svg" xmlns:xlink="http://www.w3.org/1999/xlink" x="0px" y="0px"
	 width="109px" height="108px" viewBox="0 0 109 108" enable-background="new 0 0 109 108" xml:space="preserve">
<g>
	<path fill="#DCE1EB" d="M196.05,131.412c-0.429,0-0.858-0.11-1.243-0.331l-34.825-19.955c-0.78-0.446-1.26-1.277-1.257-2.176
		c0.002-0.898,0.486-1.727,1.269-2.169l35.276-19.954c0.381-0.216,0.806-0.324,1.23-0.324c0.416,0,0.832,0.104,1.209,0.312
		l35.275,19.493c0.791,0.437,1.285,1.267,1.291,2.17c0.007,0.904-0.475,1.74-1.26,2.188l-35.726,20.416
		C196.906,131.302,196.478,131.412,196.05,131.412z"/>
	<path fill="#DCE1EB" d="M196.5,89.004l35.275,19.493l-35.726,20.416l-34.825-19.955L196.5,89.004 M196.5,84.004
		c-0.85,0-1.698,0.216-2.462,0.648l-35.276,19.954c-1.563,0.885-2.533,2.541-2.537,4.338c-0.006,1.797,0.955,3.458,2.514,4.352
		l34.826,19.955c0.77,0.441,1.627,0.662,2.485,0.662c0.856,0,1.712-0.22,2.481-0.659l35.726-20.416
		c1.569-0.896,2.532-2.57,2.519-4.377c-0.013-1.807-1-3.467-2.581-4.341l-35.276-19.493C198.166,84.212,197.332,84.004,196.5,84.004
		L196.5,84.004z"/>
</g>
<g>
	<path fill="#1F5692" d="M196.05,115.061c-0.429,0-0.858-0.11-1.243-0.331l-34.825-19.954c-0.78-0.446-1.26-1.277-1.257-2.176
		c0.002-0.898,0.486-1.727,1.269-2.169l35.276-19.955c0.381-0.216,0.806-0.324,1.23-0.324c0.416,0,0.832,0.104,1.209,0.312
		l35.275,19.494c0.791,0.437,1.285,1.267,1.291,2.17c0.007,0.904-0.475,1.74-1.26,2.188l-35.726,20.415
		C196.906,114.951,196.478,115.061,196.05,115.061z"/>
	<path fill="#1F5692" d="M196.5,72.652l35.275,19.494l-35.726,20.415l-34.825-19.954L196.5,72.652 M196.5,67.652
		c-0.85,0-1.698,0.216-2.462,0.648l-35.276,19.955c-1.563,0.885-2.533,2.541-2.537,4.338c-0.006,1.797,0.955,3.458,2.514,4.352
		l34.826,19.954c0.77,0.441,1.627,0.662,2.485,0.662c0.856,0,1.712-0.22,2.48-0.659l35.727-20.415
		c1.569-0.896,2.532-2.57,2.519-4.377c-0.013-1.807-1-3.467-2.581-4.341l-35.276-19.494C198.166,67.86,197.332,67.652,196.5,67.652
		L196.5,67.652z"/>
</g>
<g>
	<path fill="#DCE1EB" d="M196.05,96.136c-0.429,0-0.858-0.11-1.243-0.331l-34.825-19.954c-0.78-0.446-1.26-1.277-1.257-2.176
		c0.002-0.898,0.486-1.727,1.269-2.169l35.276-19.954c0.381-0.216,0.806-0.324,1.23-0.324c0.416,0,0.832,0.104,1.209,0.312
		l35.275,19.493c0.791,0.437,1.285,1.267,1.291,2.17c0.007,0.904-0.475,1.74-1.26,2.188L197.29,95.807
		C196.906,96.026,196.478,96.136,196.05,96.136z"/>
	<path fill="#DCE1EB" d="M196.5,53.729l35.275,19.493L196.05,93.636l-34.825-19.954L196.5,53.729 M196.5,48.729
		c-0.85,0-1.698,0.216-2.462,0.648L158.762,69.33c-1.563,0.885-2.533,2.541-2.537,4.338c-0.006,1.797,0.955,3.458,2.514,4.352
		l34.826,19.954c0.77,0.441,1.627,0.662,2.485,0.662c0.856,0,1.712-0.22,2.48-0.659l35.727-20.415
		c1.569-0.896,2.532-2.57,2.519-4.377c-0.013-1.807-1-3.467-2.581-4.341l-35.276-19.493C198.166,48.937,197.332,48.729,196.5,48.729
		L196.5,48.729z"/>
</g>
<line fill="none" stroke="#DADFE9" stroke-width="5" stroke-linecap="round" stroke-linejoin="round" x1="55.434" y1="63.954" x2="83.745" y2="87.682"/>
<line fill="none" stroke="#DADFE9" stroke-width="5" stroke-linecap="round" stroke-linejoin="round" x1="17.638" y1="69.784" x2="55.434" y2="63.954"/>
<line fill="none" stroke="#DADFE9" stroke-width="9" stroke-linecap="round" stroke-linejoin="round" x1="87.534" y1="35.089" x2="55.434" y2="63.954"/>
<line fill="none" stroke="#DADFE9" stroke-width="9" stroke-linecap="round" stroke-linejoin="round" x1="29.355" y1="26.223" x2="55.434" y2="63.954"/>
<circle fill="#1F5692" cx="55.434" cy="63.954" r="19.157"/>
<circle fill="#1F5692" cx="87.534" cy="35.089" r="13.503"/>
<circle fill="#1F5692" cx="17.638" cy="69.784" r="8.741"/>
<circle fill="#1F5692" cx="29.355" cy="26.223" r="11.717"/>
<circle fill="#1F5692" cx="83.745" cy="87.682" r="9.714"/>
</svg>
