<?xml version="1.0" encoding="utf-8"?>
<!-- Generator: Adobe Illustrator 16.0.0, SVG Export Plug-In . SVG Version: 6.00 Build 0)  -->
<!DOCTYPE svg PUBLIC "-//W3C//DTD SVG 1.1//EN" "http://www.w3.org/Graphics/SVG/1.1/DTD/svg11.dtd">
<svg version="1.1" id="Layer_1" xmlns="http://www.w3.org/2000/svg" xmlns:xlink="http://www.w3.org/1999/xlink" x="0px" y="0px"
	 width="109px" height="108px" viewBox="0 0 109 108" enable-background="new 0 0 109 108" xml:space="preserve">
<g>
	<path fill="#DCE1EB" d="M53.986,99.374c-0.429,0-0.858-0.11-1.243-0.331L13.025,76.285c-0.78-0.446-1.26-1.277-1.257-2.176
		s0.487-1.727,1.269-2.169l40.232-22.757c0.382-0.216,0.806-0.324,1.231-0.324c0.417,0,0.833,0.104,1.209,0.312l40.232,22.231
		c0.791,0.437,1.285,1.267,1.291,2.17c0.006,0.904-0.475,1.74-1.26,2.188L55.227,99.044C54.842,99.264,54.414,99.374,53.986,99.374z
		"/>
	<path fill="#DCE1EB" d="M54.5,51.358L94.732,73.59L53.986,96.874L14.268,74.116L54.5,51.358 M54.5,46.358
		c-0.849,0-1.698,0.216-2.462,0.648L11.806,69.764c-1.564,0.885-2.533,2.541-2.538,4.338c-0.005,1.797,0.955,3.458,2.514,4.352
		L51.5,101.212c0.77,0.441,1.628,0.662,2.486,0.662c0.856,0,1.712-0.22,2.48-0.659l40.746-23.284c1.569-0.896,2.532-2.57,2.52-4.377
		c-0.013-1.807-1-3.467-2.582-4.341L56.918,46.982C56.166,46.566,55.333,46.358,54.5,46.358L54.5,46.358z"/>
</g>
<g>
	<path fill="#1F5692" d="M53.986,80.725c-0.429,0-0.858-0.11-1.243-0.331L13.025,57.636c-0.78-0.446-1.26-1.277-1.257-2.176
		s0.487-1.727,1.269-2.169l40.232-22.758c0.382-0.216,0.806-0.324,1.231-0.324c0.417,0,0.833,0.104,1.209,0.312l40.232,22.232
		c0.791,0.437,1.285,1.267,1.291,2.17c0.006,0.904-0.475,1.74-1.26,2.188L55.227,80.395C54.842,80.615,54.414,80.725,53.986,80.725z
		"/>
	<path fill="#1F5692" d="M54.5,32.709l40.232,22.232L53.986,78.225L14.268,55.467L54.5,32.709 M54.5,27.709
		c-0.849,0-1.698,0.216-2.462,0.648L11.806,51.115C10.242,52,9.273,53.656,9.268,55.453c-0.005,1.797,0.955,3.458,2.514,4.352
		L51.5,82.563c0.77,0.441,1.628,0.662,2.486,0.662c0.856,0,1.712-0.22,2.48-0.659l40.746-23.283c1.569-0.896,2.532-2.57,2.52-4.377
		c-0.013-1.807-1-3.467-2.582-4.341L56.918,28.333C56.166,27.917,55.333,27.709,54.5,27.709L54.5,27.709z"/>
</g>
<g>
	<path fill="#DCE1EB" d="M53.986,59.142c-0.429,0-0.858-0.11-1.243-0.331L13.025,36.053c-0.78-0.446-1.26-1.277-1.257-2.176
		s0.487-1.727,1.269-2.169L53.269,8.951c0.382-0.216,0.806-0.324,1.231-0.324c0.417,0,0.833,0.104,1.209,0.312L95.941,31.17
		c0.791,0.437,1.285,1.267,1.291,2.17c0.006,0.904-0.475,1.74-1.26,2.188L55.227,58.812C54.842,59.032,54.414,59.142,53.986,59.142z
		"/>
	<path fill="#DCE1EB" d="M54.5,11.126l40.232,22.232L53.986,56.642L14.268,33.884L54.5,11.126 M54.5,6.126
		c-0.849,0-1.698,0.216-2.462,0.648L11.806,29.532c-1.564,0.885-2.533,2.541-2.538,4.338c-0.005,1.797,0.955,3.458,2.514,4.352
		L51.5,60.98c0.77,0.441,1.628,0.662,2.486,0.662c0.856,0,1.712-0.22,2.48-0.659L97.213,37.7c1.569-0.896,2.532-2.57,2.52-4.377
		c-0.013-1.807-1-3.467-2.582-4.341L56.918,6.75C56.166,6.334,55.333,6.126,54.5,6.126L54.5,6.126z"/>
</g>
</svg>
