<?xml version="1.0" encoding="utf-8"?>
<!-- Generator: Adobe Illustrator 16.0.0, SVG Export Plug-In . SVG Version: 6.00 Build 0)  -->
<!DOCTYPE svg PUBLIC "-//W3C//DTD SVG 1.1//EN" "http://www.w3.org/Graphics/SVG/1.1/DTD/svg11.dtd">
<svg version="1.1" id="Layer_1" xmlns="http://www.w3.org/2000/svg" xmlns:xlink="http://www.w3.org/1999/xlink" x="0px" y="0px"
	 width="109px" height="108px" viewBox="0 0 109 108" enable-background="new 0 0 109 108" xml:space="preserve">
<g>
	<path fill="#DCE1EB" d="M54.05,94.06c-0.429,0-0.858-0.11-1.243-0.331L17.981,73.774c-0.78-0.446-1.26-1.277-1.257-2.176
		s0.487-1.727,1.269-2.169l35.276-19.954c0.382-0.216,0.806-0.324,1.231-0.324c0.417,0,0.833,0.104,1.209,0.312l35.276,19.493
		c0.791,0.437,1.285,1.267,1.291,2.17c0.006,0.904-0.475,1.74-1.26,2.188L55.29,93.73C54.906,93.95,54.478,94.06,54.05,94.06z"/>
	<path fill="#DCE1EB" d="M54.5,51.651l35.276,19.493L54.05,91.56L19.224,71.605L54.5,51.651 M54.5,46.651
		c-0.849,0-1.698,0.216-2.462,0.648L16.762,67.253c-1.564,0.885-2.533,2.541-2.538,4.338c-0.005,1.797,0.955,3.458,2.514,4.352
		l34.826,19.955c0.77,0.441,1.628,0.662,2.486,0.662c0.856,0,1.712-0.22,2.481-0.659l35.726-20.416
		c1.569-0.896,2.532-2.57,2.519-4.377c-0.013-1.807-1-3.467-2.582-4.341L56.918,47.275C56.166,46.859,55.333,46.651,54.5,46.651
		L54.5,46.651z"/>
</g>
<g>
	<path fill="#1F5692" d="M54.05,77.708c-0.429,0-0.858-0.11-1.243-0.331L17.981,57.423c-0.78-0.446-1.26-1.277-1.257-2.176
		s0.487-1.727,1.269-2.169l35.276-19.955c0.382-0.216,0.806-0.324,1.231-0.324c0.417,0,0.833,0.104,1.209,0.312l35.276,19.494
		c0.791,0.437,1.285,1.267,1.291,2.17c0.006,0.904-0.475,1.74-1.26,2.188L55.29,77.378C54.906,77.598,54.478,77.708,54.05,77.708z"
		/>
	<path fill="#1F5692" d="M54.5,35.299l35.276,19.494L54.05,75.208L19.224,55.254L54.5,35.299 M54.5,30.299
		c-0.849,0-1.698,0.216-2.462,0.648L16.762,50.902c-1.564,0.885-2.533,2.541-2.538,4.338c-0.005,1.797,0.955,3.458,2.514,4.352
		l34.826,19.954c0.77,0.441,1.628,0.662,2.486,0.662c0.856,0,1.712-0.22,2.48-0.659l35.727-20.415
		c1.569-0.896,2.532-2.57,2.519-4.377c-0.013-1.807-1-3.467-2.582-4.341L56.918,30.923C56.166,30.507,55.333,30.299,54.5,30.299
		L54.5,30.299z"/>
</g>
<g>
	<path fill="#DCE1EB" d="M54.05,58.784c-0.429,0-0.858-0.11-1.243-0.331L17.981,38.499c-0.78-0.446-1.26-1.277-1.257-2.176
		s0.487-1.727,1.269-2.169L53.269,14.2c0.382-0.216,0.806-0.324,1.231-0.324c0.417,0,0.833,0.104,1.209,0.312l35.276,19.493
		c0.791,0.437,1.285,1.267,1.291,2.17c0.006,0.904-0.475,1.74-1.26,2.188L55.29,58.454C54.906,58.674,54.478,58.784,54.05,58.784z"
		/>
	<path fill="#DCE1EB" d="M54.5,16.376l35.276,19.493L54.05,56.284L19.224,36.33L54.5,16.376 M54.5,11.376
		c-0.849,0-1.698,0.216-2.462,0.648L16.762,31.978c-1.564,0.885-2.533,2.541-2.538,4.338c-0.005,1.797,0.955,3.458,2.514,4.352
		l34.826,19.954c0.77,0.441,1.628,0.662,2.486,0.662c0.856,0,1.712-0.22,2.48-0.659L92.257,40.21
		c1.569-0.896,2.532-2.57,2.519-4.377c-0.013-1.807-1-3.467-2.582-4.341L56.918,12C56.166,11.584,55.333,11.376,54.5,11.376
		L54.5,11.376z"/>
</g>
<line fill="none" stroke="#DADFE9" stroke-width="12" stroke-linecap="round" stroke-linejoin="round" x1="-90.766" y1="76.546" x2="-60.918" y2="101.562"/>
<line fill="none" stroke="#DADFE9" stroke-width="12" stroke-linecap="round" stroke-linejoin="round" x1="-130.612" y1="82.692" x2="-90.766" y2="76.546"/>
<line fill="none" stroke="#DADFE9" stroke-width="20" stroke-linecap="round" stroke-linejoin="round" x1="-56.924" y1="46.115" x2="-90.766" y2="76.546"/>
<line fill="none" stroke="#DADFE9" stroke-width="20" stroke-linecap="round" stroke-linejoin="round" x1="-118.259" y1="36.767" x2="-90.766" y2="76.546"/>
<circle fill="#1F5692" cx="-90.766" cy="76.546" r="20.197"/>
<circle fill="#1F5692" cx="-56.924" cy="46.115" r="14.236"/>
<circle fill="#1F5692" cx="-130.612" cy="82.692" r="9.215"/>
<circle fill="#1F5692" cx="-118.259" cy="36.767" r="12.353"/>
<circle fill="#1F5692" cx="-60.918" cy="101.562" r="10.241"/>
</svg>
