<?xml version="1.0" encoding="utf-8"?>
<!-- Generator: Adobe Illustrator 16.0.0, SVG Export Plug-In . SVG Version: 6.00 Build 0)  -->
<!DOCTYPE svg PUBLIC "-//W3C//DTD SVG 1.1//EN" "http://www.w3.org/Graphics/SVG/1.1/DTD/svg11.dtd">
<svg version="1.1" id="Layer_1" xmlns="http://www.w3.org/2000/svg" xmlns:xlink="http://www.w3.org/1999/xlink" x="0px" y="0px"
	 width="150px" height="150px" viewBox="0 0 150 150" enable-background="new 0 0 150 150" xml:space="preserve">
<path fill="none" stroke="#1E2B58" stroke-width="2" d="M106.659,75.667c0,20.895-3.602,39.774-9.394,53.4
	c-2.896,6.815-6.324,12.28-10.091,16.029c-3.764,3.742-7.821,5.736-12.008,5.736s-8.245-1.994-12.008-5.736
	c-3.767-3.749-7.195-9.214-10.091-16.029c-5.791-13.626-9.393-32.506-9.393-53.4c0-20.895,3.602-39.774,9.393-53.401
	c2.896-6.814,6.325-12.278,10.091-16.027C66.922,2.494,70.979,0.5,75.167,0.5s8.245,1.994,12.008,5.738
	c3.767,3.749,7.195,9.213,10.091,16.027C103.058,35.893,106.659,54.772,106.659,75.667z"/>
<circle fill="none" stroke="#1E2B58" stroke-width="2" cx="76.04" cy="76.422" r="18.022"/>
<path fill="none" stroke="#1E2B58" stroke-width="2" d="M75.167,107.158c-20.895,0-39.774-3.601-53.401-9.391
	C14.951,94.87,9.487,91.442,5.739,87.676C1.994,83.911,0,79.854,0,75.667c0-4.187,1.994-8.245,5.739-12.007
	c3.748-3.766,9.212-7.195,16.027-10.091c13.626-5.792,32.506-9.394,53.401-9.394s39.775,3.602,53.402,9.394
	c6.813,2.896,12.277,6.325,16.025,10.091c3.746,3.763,5.739,7.82,5.739,12.007c0,4.188-1.993,8.244-5.739,12.009
	c-3.748,3.767-9.212,7.194-16.025,10.092C114.941,103.558,96.062,107.158,75.167,107.158z"/>
<path fill="none" stroke="#1E2B58" stroke-width="2" d="M97.508,97.891c-14.872,14.871-30.86,25.763-44.66,31.359
	c-6.901,2.801-13.218,4.263-18.553,4.263c-5.331,0-9.622-1.453-12.585-4.417c-2.964-2.964-4.417-7.254-4.416-12.585
	c0.001-5.334,1.463-11.65,4.263-18.554c5.598-13.798,16.487-29.786,31.359-44.658c14.873-14.874,30.86-25.761,44.66-31.36
	c6.901-2.801,13.218-4.263,18.554-4.263c5.331-0.001,9.621,1.451,12.585,4.415c2.964,2.964,4.418,7.254,4.415,12.585
	c0,5.335-1.462,11.653-4.262,18.555C123.27,67.03,112.381,83.017,97.508,97.891z"/>
<path fill="none" stroke="#1E2B58" stroke-width="2" d="M52.917,97.891c14.873,14.871,30.86,25.763,44.66,31.359
	c6.901,2.801,13.218,4.263,18.554,4.263c5.329,0,9.621-1.453,12.585-4.417c2.963-2.964,4.418-7.254,4.415-12.585
	c0-5.334-1.462-11.65-4.262-18.554c-5.599-13.798-16.487-29.786-31.36-44.658c-14.873-14.874-30.86-25.761-44.66-31.36
	c-6.901-2.801-13.218-4.263-18.553-4.263c-5.331-0.001-9.622,1.451-12.585,4.415c-2.964,2.964-4.417,7.254-4.417,12.585
	c0.001,5.335,1.463,11.653,4.263,18.555C27.155,67.03,38.044,83.017,52.917,97.891z"/>
<path fill="#A0A3CA" stroke="#A0A3CA" stroke-width="4" d="M85.962,76.42c0,5.481-4.442,9.924-9.923,9.924
	c-5.48,0-9.922-4.442-9.922-9.924c0-5.479,4.442-9.921,9.922-9.921C81.52,66.499,85.962,70.94,85.962,76.42z"/>
<path fill="#A0A3CA" stroke="#A0A3CA" stroke-width="4" d="M34.023,100.986c0,2.622-2.126,4.747-4.748,4.747
	s-4.748-2.125-4.748-4.747c0-2.623,2.126-4.747,4.748-4.747S34.023,98.363,34.023,100.986z"/>
<path fill="#A0A3CA" stroke="#A0A3CA" stroke-width="4" d="M70.419,28.193c0,2.623-2.125,4.748-4.747,4.748
	s-4.748-2.125-4.748-4.748s2.126-4.747,4.748-4.747S70.419,25.571,70.419,28.193z"/>
<path fill="#A0A3CA" stroke="#A0A3CA" stroke-width="4" d="M95.738,140.547c0,2.624-2.126,4.747-4.747,4.747
	c-2.622,0-4.747-2.123-4.747-4.747c0-2.621,2.125-4.747,4.747-4.747C93.612,135.8,95.738,137.926,95.738,140.547z"/>
<path fill="#A0A3CA" stroke="#A0A3CA" stroke-width="4" d="M127.388,66.172c0,2.623-2.127,4.747-4.748,4.747
	s-4.747-2.125-4.747-4.747s2.126-4.748,4.747-4.748S127.388,63.55,127.388,66.172z"/>
</svg>
