<?xml version="1.0" encoding="utf-8"?>
<!-- Generator: Adobe Illustrator 16.0.0, SVG Export Plug-In . SVG Version: 6.00 Build 0)  -->
<!DOCTYPE svg PUBLIC "-//W3C//DTD SVG 1.1//EN" "http://www.w3.org/Graphics/SVG/1.1/DTD/svg11.dtd">
<svg version="1.1" id="Layer_1" xmlns="http://www.w3.org/2000/svg" xmlns:xlink="http://www.w3.org/1999/xlink" x="0px" y="0px"
	 width="2287.5px" height="1986.2px" viewBox="0 0 2287.5 1986.2" enable-background="new 0 0 2287.5 1986.2" xml:space="preserve">
<g transform="matrix(1.25 0 0 -1.25 0 1986.2)">
	<g transform="translate(984.13 1339.3)">
		<path fill="#B3B3B3" d="M0.167-1089.797v0.56l-0.169-0.28L0.167-1089.797z"/>
	</g>
	<g transform="translate(845.7 1581.5)">
		<path fill="#B3B3B3" d="M-0.003-1573.91h-0.98L-140-1333.116l139.997,242.474l0.475,0.28l137.956-241.354L0.002-1573.91H-0.003z"
			/>
	</g>
	<g transform="translate(1404.1 1339.3)">
		<path fill="#B3B3B3" d="M0.155-1089.797v0.56l-0.167-0.28L0.155-1089.797z"/>
	</g>
	<g transform="translate(1265.7 1581.5)">
		<path fill="#B3B3B3" d="M-0.014-1573.91h-0.98l-139.017,240.794l139.997,242.474l0.475,0.28l137.958-241.354L-0.008-1573.91
			H-0.014z"/>
	</g>
	<g transform="translate(1266.2 1097.9)">
		<path fill="#4D4D4D" d="M-0.484-607.003l-139.997-242.473h-279.992l138.595,242.473v1.12H-0.484l0.477-0.84L-0.484-607.003z"/>
	</g>
	<g transform="translate(1264.7 1581.5)">
		<path fill="#808080" d="M-280.422-1573.91v-1.681l-138.596,242.474h279.993L-0.008-1573.91H-280.422z"/>
	</g>
	<g transform="translate(1824.1 1339.3)">
		<path fill="#B3B3B3" d="M0.145-1089.797v0.56l-0.167-0.28L0.145-1089.797z"/>
	</g>
	<g transform="translate(1685.7 1581.5)">
		<path fill="#B3B3B3" d="M-0.025-1573.91h-0.98l-139.017,240.794l139.997,242.474l0.477,0.28l137.956-241.354L-0.019-1573.91
			H-0.025z"/>
	</g>
	<g transform="translate(1686.2 1097.9)">
		<path fill="#4D4D4D" d="M-0.495-607.003l-139.997-242.473h-279.992l138.597,242.473v1.12H-0.495l0.477-0.84L-0.495-607.003z"/>
	</g>
	<g transform="translate(1684.7 1581.5)">
		<path fill="#808080" d="M-280.431-1573.91v-1.681l-138.597,242.474h279.992L-0.019-1573.91H-280.431z"/>
	</g>
	<g transform="translate(1614.1 975.52)">
		<path fill="#B3B3B3" d="M0.152-362.246v0.561l-0.169-0.281L0.152-362.246z"/>
	</g>
	<g transform="translate(1475.7 1217.7)">
		<path fill="#B3B3B3" d="M-0.02-846.319H-1l-139.016,240.794L-0.02-363.051l0.477,0.28l137.956-241.354L-0.014-846.319H-0.02z"/>
	</g>
	<g transform="translate(1476.2 734.17)">
		<path fill="#4D4D4D" d="M-0.489,120.448l-139.997-242.473H-420.48l138.597,242.473v1.12H-0.489l0.475-0.839L-0.489,120.448z"/>
	</g>
	<g transform="translate(1474.7 1217.7)">
		<path fill="#808080" d="M-280.427-846.319V-848l-138.597,242.474h279.994L-0.014-846.319H-280.427z"/>
	</g>
	<g transform="translate(1404.1 611.8)">
		<path fill="#B3B3B3" d="M0.155,365.185v0.561l-0.167-0.281L0.155,365.185z"/>
	</g>
	<g transform="translate(1265.7 853.99)">
		<path fill="#B3B3B3" d="M-0.014-118.909h-0.98l-139.017,240.794L-0.014,364.359l0.475,0.28l137.958-241.353L-0.008-118.909H-0.014
			z"/>
	</g>
	<g transform="translate(1266.2 370.44)">
		<path fill="#4D4D4D" d="M-0.484,847.9l-139.997-242.475h-279.992L-281.878,847.9v1.119H-0.484l0.477-0.839L-0.484,847.9z"/>
	</g>
	<g transform="translate(1264.7 853.99)">
		<path fill="#808080" d="M-280.422-118.909v-1.68l-138.597,242.474h279.994L-0.008-118.909H-280.422z"/>
	</g>
	<g transform="translate(1194.1 248.07)">
		<path fill="#B3B3B3" d="M0.161,1092.637v0.559l-0.167-0.28L0.161,1092.637z"/>
	</g>
	<g transform="translate(1055.7 490.27)">
		<path fill="#B3B3B3" d="M-0.009,608.523h-0.98l-139.017,240.794L-0.009,1091.79l0.477,0.28l137.956-241.353L-0.003,608.523H-0.009
			z"/>
	</g>
	<g transform="translate(1056.2 6.7096)">
		<path fill="#4D4D4D" d="M-0.48,1575.35l-139.995-242.474h-279.994l138.597,242.474v1.12H-0.48l0.477-0.841L-0.48,1575.35z"/>
	</g>
	<g transform="translate(1054.7 490.27)">
		<path fill="#808080" d="M-280.416,608.523v-1.681l-138.597,242.475h279.992L-0.003,608.523H-280.416z"/>
	</g>
	<g transform="translate(984.13 611.8)">
		<path fill="#B3B3B3" d="M0.167,365.185v0.561l-0.169-0.281L0.167,365.185z"/>
	</g>
	<g transform="translate(845.7 853.99)">
		<path fill="#B3B3B3" d="M-0.003-118.909h-0.981L-140,121.886L-0.003,364.359l0.475,0.28l137.956-241.353L0.002-118.909H-0.003z"/>
	</g>
	<g transform="translate(846.18 370.44)">
		<path fill="#4D4D4D" d="M-0.474,847.9l-139.997-242.475h-279.992L-281.867,847.9v1.119H-0.474l0.477-0.839L-0.474,847.9z"/>
	</g>
	<g transform="translate(844.72 853.99)">
		<path fill="#808080" d="M-280.411-118.909v-1.68l-138.597,242.474h279.994L0.002-118.909H-280.411z"/>
	</g>
	<g transform="translate(774.13 975.52)">
		<path fill="#B3B3B3" d="M0.172-362.246v0.561l-0.167-0.281L0.172-362.246z"/>
	</g>
	<g transform="translate(635.7 1217.7)">
		<path fill="#B3B3B3" d="M0.002-846.319h-0.98l-139.017,240.794L0.002-363.051l0.477,0.28l137.956-241.354L0.008-846.319H0.002z"/>
	</g>
	<g transform="translate(636.18 734.17)">
		<path fill="#4D4D4D" d="M-0.469,120.448l-139.995-242.473h-279.994l138.597,242.473v1.12H-0.469l0.477-0.839L-0.469,120.448z"/>
	</g>
	<g transform="translate(634.72 1217.7)">
		<path fill="#808080" d="M-280.405-846.319V-848l-138.597,242.474h279.993L0.008-846.319H-280.405z"/>
	</g>
	<g transform="translate(564.13 1339.3)">
		<path fill="#B3B3B3" d="M0.178-1089.797v0.56l-0.168-0.28L0.178-1089.797z"/>
	</g>
	<g transform="translate(425.7 1581.5)">
		<path fill="#B3B3B3" d="M0.007-1573.911h-0.98l-139.017,240.795L0.007-1090.643l0.476,0.28l137.957-241.354L0.013-1573.911H0.007z
			"/>
	</g>
	<g transform="translate(426.18 1097.9)">
		<path fill="#4D4D4D" d="M-0.463-607.003L-140.46-849.476h-279.993l138.597,242.473v1.12H-0.463l0.476-0.84L-0.463-607.003z"/>
	</g>
	<g transform="translate(424.72 1581.5)">
		<path fill="#808080" d="M-280.4-1573.911v-1.68l-138.597,242.474h279.993L0.013-1573.911H-280.4z"/>
	</g>
	<g transform="translate(846.18 1097.9)">
		<path fill="#4D4D4D" d="M-0.474-607.003L-140.47-849.476h-279.993l138.595,242.473v1.12H-0.474l0.477-0.84L-0.474-607.003z"/>
	</g>
	<g transform="translate(844.72 1581.5)">
		<path fill="#808080" d="M-280.411-1573.911v-1.68l-138.596,242.474h279.993L0.003-1573.91L-280.411-1573.911z"/>
	</g>
</g>
<polygon display="none" opacity="0.8" fill="#FFFFFF" points="269.035,1741.914 1133.69,244.287 1998.345,1741.914 "/>
<polygon display="none" opacity="0.8" fill="none" stroke="#FF4500" stroke-width="31" stroke-miterlimit="10" points="
	279.095,1741.914 1143.75,244.288 2008.404,1741.914 "/>
</svg>
