<?xml version="1.0" encoding="utf-8"?>
<!-- Generator: Adobe Illustrator 16.0.0, SVG Export Plug-In . SVG Version: 6.00 Build 0)  -->
<!DOCTYPE svg PUBLIC "-//W3C//DTD SVG 1.1//EN" "http://www.w3.org/Graphics/SVG/1.1/DTD/svg11.dtd">
<svg version="1.1" id="Layer_1" xmlns="http://www.w3.org/2000/svg" xmlns:xlink="http://www.w3.org/1999/xlink" x="0px" y="0px"
	 width="1600px" height="500px" viewBox="0 0 1600 500" enable-background="new 0 0 1600 500" xml:space="preserve">
<g>
	<g>
		<path fill="#CBD7EE" d="M269.33,545c95.664,0,114.154,80.396,267.721,80.396c156.745,0,168.013-80.396,267.683-80.396
			c95.702,0,114.154,80.396,267.721,80.396c156.784,0,168.013-80.396,267.721-80.396c95.626,0,112.585,78.824,266.151,80.396
			V102.509c-95.707,0-114.154-80.395-267.721-80.395c-156.787,0-168.014,80.395-267.722,80.395
			c-95.707,0-114.154-80.395-267.721-80.395c-156.788,0-168.051,80.395-267.721,80.395c-95.664,0-114.155-80.395-267.721-80.395
			C110.934,22.115,99.708,102.509,0,102.509v522.887C152.744,625.396,174.451,545,269.33,545z"/>
	</g>
</g>
</svg>
